<?xml version="1.0" encoding="UTF-8" standalone="no"?>
<!DOCTYPE svg PUBLIC "-//W3C//DTD SVG 1.1//EN"
 "http://www.w3.org/Graphics/SVG/1.1/DTD/svg11.dtd">
<!-- Generated by graphviz version 2.47.0 (20210316.0004)
 -->
<!-- Title: dependencies Pages: 1 -->
<svg width="2140pt" height="211pt"
 viewBox="0.00 0.00 2140.00 211.00" xmlns="http://www.w3.org/2000/svg" xmlns:xlink="http://www.w3.org/1999/xlink">
<g id="graph0" class="graph" transform="scale(1 1) rotate(0) translate(4 207)">
<title>dependencies</title>
<polygon fill="white" stroke="transparent" points="-4,4 -4,-207 2136,-207 2136,4 -4,4"/>
<text text-anchor="start" x="1045.01" y="-42.4" font-family="Times-12" font-weight="bold" font-size="14.00">Legend</text>
<polygon fill="#ffffb3" stroke="transparent" points="832,-10 832,-30 852,-30 852,-10 832,-10"/>
<text text-anchor="start" x="855.63" y="-15.4" font-family="Times-12" font-size="14.00"> &#160;Declarations</text>
<polygon fill="#8dd3c7" stroke="transparent" points="945,-10 945,-30 965,-30 965,-10 945,-10"/>
<text text-anchor="start" x="968.73" y="-15.4" font-family="Times-12" font-size="14.00"> &#160;Module</text>
<polygon fill="#80b1d3" stroke="transparent" points="1031,-10 1031,-30 1051,-30 1051,-10 1031,-10"/>
<text text-anchor="start" x="1054.78" y="-15.4" font-family="Times-12" font-size="14.00"> &#160;Bootstrap</text>
<polygon fill="#fdb462" stroke="transparent" points="1128,-10 1128,-30 1148,-30 1148,-10 1128,-10"/>
<text text-anchor="start" x="1151.67" y="-15.4" font-family="Times-12" font-size="14.00"> &#160;Providers</text>
<polygon fill="#fb8072" stroke="transparent" points="1224,-10 1224,-30 1244,-30 1244,-10 1224,-10"/>
<text text-anchor="start" x="1247.73" y="-15.4" font-family="Times-12" font-size="14.00"> &#160;Exports</text>
<g id="clust1" class="cluster">
<title>cluster_AppModule</title>
<polygon fill="none" stroke="black" stroke-dasharray="1,5" points="8,-70 8,-195 2124,-195 2124,-70 8,-70"/>
</g>
<g id="clust3" class="cluster">
<title>cluster_AppModule_imports</title>
<polygon fill="none" stroke="black" points="16,-78 16,-130 2116,-130 2116,-78 16,-78"/>
</g>
<!-- AuthModule -->
<g id="node1" class="node">
<title>AuthModule</title>
<polygon fill="#8dd3c7" stroke="black" points="2107.55,-122 2104.55,-126 2083.55,-126 2080.55,-122 2020.45,-122 2020.45,-86 2107.55,-86 2107.55,-122"/>
<text text-anchor="middle" x="2064" y="-99.8" font-family="Times,serif" font-size="14.00">AuthModule</text>
</g>
<!-- AppModule -->
<g id="node18" class="node">
<title>AppModule</title>
<polygon fill="#8dd3c7" stroke="black" points="1063.66,-187 1060.66,-191 1039.66,-191 1036.66,-187 980.34,-187 980.34,-151 1063.66,-151 1063.66,-187"/>
<text text-anchor="middle" x="1022" y="-164.8" font-family="Times,serif" font-size="14.00">AppModule</text>
</g>
<!-- AuthModule&#45;&gt;AppModule -->
<g id="edge1" class="edge">
<title>AuthModule&#45;&gt;AppModule</title>
<path fill="none" stroke="black" d="M2064,-122.32C2064,-145.66 2064,-183 2064,-183 2064,-183 1073.81,-183 1073.81,-183"/>
<polygon fill="black" stroke="black" points="1073.81,-179.5 1063.81,-183 1073.81,-186.5 1073.81,-179.5"/>
</g>
<!-- ChargeModule -->
<g id="node2" class="node">
<title>ChargeModule</title>
<polygon fill="#8dd3c7" stroke="black" points="2001.98,-122 1998.98,-126 1977.98,-126 1974.98,-122 1902.02,-122 1902.02,-86 2001.98,-86 2001.98,-122"/>
<text text-anchor="middle" x="1952" y="-99.8" font-family="Times,serif" font-size="14.00">ChargeModule</text>
</g>
<!-- ChargeModule&#45;&gt;AppModule -->
<g id="edge2" class="edge">
<title>ChargeModule&#45;&gt;AppModule</title>
<path fill="none" stroke="black" d="M1952,-122.16C1952,-144.35 1952,-179 1952,-179 1952,-179 1073.77,-179 1073.77,-179"/>
<polygon fill="black" stroke="black" points="1073.77,-175.5 1063.77,-179 1073.77,-182.5 1073.77,-175.5"/>
</g>
<!-- CompanyModule -->
<g id="node3" class="node">
<title>CompanyModule</title>
<polygon fill="#8dd3c7" stroke="black" points="1883.99,-122 1880.99,-126 1859.99,-126 1856.99,-122 1770.01,-122 1770.01,-86 1883.99,-86 1883.99,-122"/>
<text text-anchor="middle" x="1827" y="-99.8" font-family="Times,serif" font-size="14.00">CompanyModule</text>
</g>
<!-- CompanyModule&#45;&gt;AppModule -->
<g id="edge3" class="edge">
<title>CompanyModule&#45;&gt;AppModule</title>
<path fill="none" stroke="black" d="M1827,-122.28C1827,-143.32 1827,-175 1827,-175 1827,-175 1073.87,-175 1073.87,-175"/>
<polygon fill="black" stroke="black" points="1073.87,-171.5 1063.87,-175 1073.87,-178.5 1073.87,-171.5"/>
</g>
<!-- CustomerModule -->
<g id="node4" class="node">
<title>CustomerModule</title>
<polygon fill="#8dd3c7" stroke="black" points="1751.99,-122 1748.99,-126 1727.99,-126 1724.99,-122 1638.01,-122 1638.01,-86 1751.99,-86 1751.99,-122"/>
<text text-anchor="middle" x="1695" y="-99.8" font-family="Times,serif" font-size="14.00">CustomerModule</text>
</g>
<!-- CustomerModule&#45;&gt;AppModule -->
<g id="edge4" class="edge">
<title>CustomerModule&#45;&gt;AppModule</title>
<path fill="none" stroke="black" d="M1695,-122.31C1695,-142.15 1695,-171 1695,-171 1695,-171 1073.84,-171 1073.84,-171"/>
<polygon fill="black" stroke="black" points="1073.84,-167.5 1063.84,-171 1073.84,-174.5 1073.84,-167.5"/>
</g>
<!-- Log4jsGlobalModule -->
<g id="node5" class="node">
<title>Log4jsGlobalModule</title>
<polygon fill="#8dd3c7" stroke="black" points="1620.04,-122 1617.04,-126 1596.04,-126 1593.04,-122 1483.96,-122 1483.96,-86 1620.04,-86 1620.04,-122"/>
<text text-anchor="middle" x="1552" y="-99.8" font-family="Times,serif" font-size="14.00">Log4jsGlobalModule</text>
</g>
<!-- Log4jsGlobalModule&#45;&gt;AppModule -->
<g id="edge5" class="edge">
<title>Log4jsGlobalModule&#45;&gt;AppModule</title>
<path fill="none" stroke="black" d="M1552,-122.22C1552,-140.83 1552,-167 1552,-167 1552,-167 1074.03,-167 1074.03,-167"/>
<polygon fill="black" stroke="black" points="1074.03,-163.5 1064.03,-167 1074.03,-170.5 1074.03,-163.5"/>
</g>
<!-- MenuModule -->
<g id="node6" class="node">
<title>MenuModule</title>
<polygon fill="#8dd3c7" stroke="black" points="1466.21,-122 1463.21,-126 1442.21,-126 1439.21,-122 1373.79,-122 1373.79,-86 1466.21,-86 1466.21,-122"/>
<text text-anchor="middle" x="1420" y="-99.8" font-family="Times,serif" font-size="14.00">MenuModule</text>
</g>
<!-- MenuModule&#45;&gt;AppModule -->
<g id="edge6" class="edge">
<title>MenuModule&#45;&gt;AppModule</title>
<path fill="none" stroke="black" d="M1420,-122.02C1420,-139.37 1420,-163 1420,-163 1420,-163 1073.84,-163 1073.84,-163"/>
<polygon fill="black" stroke="black" points="1073.84,-159.5 1063.84,-163 1073.84,-166.5 1073.84,-159.5"/>
</g>
<!-- OrderModule -->
<g id="node7" class="node">
<title>OrderModule</title>
<polygon fill="#8dd3c7" stroke="black" points="1356.19,-122 1353.19,-126 1332.19,-126 1329.19,-122 1263.81,-122 1263.81,-86 1356.19,-86 1356.19,-122"/>
<text text-anchor="middle" x="1310" y="-99.8" font-family="Times,serif" font-size="14.00">OrderModule</text>
</g>
<!-- OrderModule&#45;&gt;AppModule -->
<g id="edge7" class="edge">
<title>OrderModule&#45;&gt;AppModule</title>
<path fill="none" stroke="black" d="M1310,-122.01C1310,-138.05 1310,-159 1310,-159 1310,-159 1073.88,-159 1073.88,-159"/>
<polygon fill="black" stroke="black" points="1073.88,-155.5 1063.88,-159 1073.88,-162.5 1073.88,-155.5"/>
</g>
<!-- ProductCategoryModule -->
<g id="node8" class="node">
<title>ProductCategoryModule</title>
<polygon fill="#8dd3c7" stroke="black" points="1246.42,-122 1243.42,-126 1222.42,-126 1219.42,-122 1091.58,-122 1091.58,-86 1246.42,-86 1246.42,-122"/>
<text text-anchor="middle" x="1169" y="-99.8" font-family="Times,serif" font-size="14.00">ProductCategoryModule</text>
</g>
<!-- ProductCategoryModule&#45;&gt;AppModule -->
<g id="edge8" class="edge">
<title>ProductCategoryModule&#45;&gt;AppModule</title>
<path fill="none" stroke="black" d="M1169,-122.12C1169,-136.78 1169,-155 1169,-155 1169,-155 1073.73,-155 1073.73,-155"/>
<polygon fill="black" stroke="black" points="1073.73,-151.5 1063.73,-155 1073.73,-158.5 1073.73,-151.5"/>
</g>
<!-- ProductModule -->
<g id="node9" class="node">
<title>ProductModule</title>
<polygon fill="#8dd3c7" stroke="black" points="1073.6,-122 1070.6,-126 1049.6,-126 1046.6,-122 970.4,-122 970.4,-86 1073.6,-86 1073.6,-122"/>
<text text-anchor="middle" x="1022" y="-99.8" font-family="Times,serif" font-size="14.00">ProductModule</text>
</g>
<!-- ProductModule&#45;&gt;AppModule -->
<g id="edge9" class="edge">
<title>ProductModule&#45;&gt;AppModule</title>
<path fill="none" stroke="black" d="M1022,-122.11C1022,-122.11 1022,-140.99 1022,-140.99"/>
<polygon fill="black" stroke="black" points="1018.5,-140.99 1022,-150.99 1025.5,-140.99 1018.5,-140.99"/>
</g>
<!-- ProductUnitModule -->
<g id="node10" class="node">
<title>ProductUnitModule</title>
<polygon fill="#8dd3c7" stroke="black" points="951.99,-122 948.99,-126 927.99,-126 924.99,-122 824.01,-122 824.01,-86 951.99,-86 951.99,-122"/>
<text text-anchor="middle" x="888" y="-99.8" font-family="Times,serif" font-size="14.00">ProductUnitModule</text>
</g>
<!-- ProductUnitModule&#45;&gt;AppModule -->
<g id="edge10" class="edge">
<title>ProductUnitModule&#45;&gt;AppModule</title>
<path fill="none" stroke="black" d="M888,-122.12C888,-136.78 888,-155 888,-155 888,-155 970.34,-155 970.34,-155"/>
<polygon fill="black" stroke="black" points="970.34,-158.5 980.34,-155 970.34,-151.5 970.34,-158.5"/>
</g>
<!-- RedisModule -->
<g id="node11" class="node">
<title>RedisModule</title>
<polygon fill="#8dd3c7" stroke="black" points="805.94,-122 802.94,-126 781.94,-126 778.94,-122 714.06,-122 714.06,-86 805.94,-86 805.94,-122"/>
<text text-anchor="middle" x="760" y="-99.8" font-family="Times,serif" font-size="14.00">RedisModule</text>
</g>
<!-- RedisModule&#45;&gt;AppModule -->
<g id="edge11" class="edge">
<title>RedisModule&#45;&gt;AppModule</title>
<path fill="none" stroke="black" d="M760,-122.01C760,-138.05 760,-159 760,-159 760,-159 970.2,-159 970.2,-159"/>
<polygon fill="black" stroke="black" points="970.2,-162.5 980.2,-159 970.2,-155.5 970.2,-162.5"/>
</g>
<!-- ReportModule -->
<g id="node12" class="node">
<title>ReportModule</title>
<polygon fill="#8dd3c7" stroke="black" points="695.65,-122 692.65,-126 671.65,-126 668.65,-122 598.35,-122 598.35,-86 695.65,-86 695.65,-122"/>
<text text-anchor="middle" x="647" y="-99.8" font-family="Times,serif" font-size="14.00">ReportModule</text>
</g>
<!-- ReportModule&#45;&gt;AppModule -->
<g id="edge12" class="edge">
<title>ReportModule&#45;&gt;AppModule</title>
<path fill="none" stroke="black" d="M647,-122.02C647,-139.37 647,-163 647,-163 647,-163 970.07,-163 970.07,-163"/>
<polygon fill="black" stroke="black" points="970.07,-166.5 980.07,-163 970.07,-159.5 970.07,-166.5"/>
</g>
<!-- ResetModule -->
<g id="node13" class="node">
<title>ResetModule</title>
<polygon fill="#8dd3c7" stroke="black" points="580.15,-122 577.15,-126 556.15,-126 553.15,-122 489.85,-122 489.85,-86 580.15,-86 580.15,-122"/>
<text text-anchor="middle" x="535" y="-99.8" font-family="Times,serif" font-size="14.00">ResetModule</text>
</g>
<!-- ResetModule&#45;&gt;AppModule -->
<g id="edge13" class="edge">
<title>ResetModule&#45;&gt;AppModule</title>
<path fill="none" stroke="black" d="M535,-122.22C535,-140.83 535,-167 535,-167 535,-167 970.06,-167 970.06,-167"/>
<polygon fill="black" stroke="black" points="970.06,-170.5 980.06,-167 970.06,-163.5 970.06,-170.5"/>
</g>
<!-- RoleModule -->
<g id="node14" class="node">
<title>RoleModule</title>
<polygon fill="#8dd3c7" stroke="black" points="471.99,-122 468.99,-126 447.99,-126 444.99,-122 386.01,-122 386.01,-86 471.99,-86 471.99,-122"/>
<text text-anchor="middle" x="429" y="-99.8" font-family="Times,serif" font-size="14.00">RoleModule</text>
</g>
<!-- RoleModule&#45;&gt;AppModule -->
<g id="edge14" class="edge">
<title>RoleModule&#45;&gt;AppModule</title>
<path fill="none" stroke="black" d="M429,-122.31C429,-142.15 429,-171 429,-171 429,-171 970.3,-171 970.3,-171"/>
<polygon fill="black" stroke="black" points="970.3,-174.5 980.3,-171 970.3,-167.5 970.3,-174.5"/>
</g>
<!-- StatisticsModule -->
<g id="node15" class="node">
<title>StatisticsModule</title>
<polygon fill="#8dd3c7" stroke="black" points="368.1,-122 365.1,-126 344.1,-126 341.1,-122 257.9,-122 257.9,-86 368.1,-86 368.1,-122"/>
<text text-anchor="middle" x="313" y="-99.8" font-family="Times,serif" font-size="14.00">StatisticsModule</text>
</g>
<!-- StatisticsModule&#45;&gt;AppModule -->
<g id="edge15" class="edge">
<title>StatisticsModule&#45;&gt;AppModule</title>
<path fill="none" stroke="black" d="M313,-122.28C313,-143.32 313,-175 313,-175 313,-175 970.3,-175 970.3,-175"/>
<polygon fill="black" stroke="black" points="970.3,-178.5 980.3,-175 970.3,-171.5 970.3,-178.5"/>
</g>
<!-- TemplateModule -->
<g id="node16" class="node">
<title>TemplateModule</title>
<polygon fill="#8dd3c7" stroke="black" points="240.42,-122 237.42,-126 216.42,-126 213.42,-122 127.58,-122 127.58,-86 240.42,-86 240.42,-122"/>
<text text-anchor="middle" x="184" y="-99.8" font-family="Times,serif" font-size="14.00">TemplateModule</text>
</g>
<!-- TemplateModule&#45;&gt;AppModule -->
<g id="edge16" class="edge">
<title>TemplateModule&#45;&gt;AppModule</title>
<path fill="none" stroke="black" d="M184,-122.16C184,-144.35 184,-179 184,-179 184,-179 970.16,-179 970.16,-179"/>
<polygon fill="black" stroke="black" points="970.16,-182.5 980.16,-179 970.16,-175.5 970.16,-182.5"/>
</g>
<!-- UserModule -->
<g id="node17" class="node">
<title>UserModule</title>
<polygon fill="#8dd3c7" stroke="black" points="109.98,-122 106.98,-126 85.98,-126 82.98,-122 24.02,-122 24.02,-86 109.98,-86 109.98,-122"/>
<text text-anchor="middle" x="67" y="-99.8" font-family="Times,serif" font-size="14.00">UserModule</text>
</g>
<!-- UserModule&#45;&gt;AppModule -->
<g id="edge17" class="edge">
<title>UserModule&#45;&gt;AppModule</title>
<path fill="none" stroke="black" d="M67,-122.32C67,-145.66 67,-183 67,-183 67,-183 970.04,-183 970.04,-183"/>
<polygon fill="black" stroke="black" points="970.04,-186.5 980.04,-183 970.04,-179.5 970.04,-186.5"/>
</g>
</g>
</svg>
