<?xml version="1.0" encoding="UTF-8" standalone="no"?>
<!DOCTYPE svg PUBLIC "-//W3C//DTD SVG 1.1//EN"
 "http://www.w3.org/Graphics/SVG/1.1/DTD/svg11.dtd">
<!-- Generated by graphviz version 2.47.0 (20210316.0004)
 -->
<!-- Title: dependencies Pages: 1 -->
<svg width="623pt" height="284pt"
 viewBox="0.00 0.00 623.00 284.00" xmlns="http://www.w3.org/2000/svg" xmlns:xlink="http://www.w3.org/1999/xlink">
<g id="graph0" class="graph" transform="scale(1 1) rotate(0) translate(4 280)">
<title>dependencies</title>
<polygon fill="white" stroke="transparent" points="-4,4 -4,-280 619,-280 619,4 -4,4"/>
<text text-anchor="start" x="286.51" y="-42.4" font-family="Times-12" font-weight="bold" font-size="14.00">Legend</text>
<polygon fill="#ffffb3" stroke="transparent" points="73.5,-10 73.5,-30 93.5,-30 93.5,-10 73.5,-10"/>
<text text-anchor="start" x="97.13" y="-15.4" font-family="Times-12" font-size="14.00"> &#160;Declarations</text>
<polygon fill="#8dd3c7" stroke="transparent" points="186.5,-10 186.5,-30 206.5,-30 206.5,-10 186.5,-10"/>
<text text-anchor="start" x="210.23" y="-15.4" font-family="Times-12" font-size="14.00"> &#160;Module</text>
<polygon fill="#80b1d3" stroke="transparent" points="272.5,-10 272.5,-30 292.5,-30 292.5,-10 272.5,-10"/>
<text text-anchor="start" x="296.28" y="-15.4" font-family="Times-12" font-size="14.00"> &#160;Bootstrap</text>
<polygon fill="#fdb462" stroke="transparent" points="369.5,-10 369.5,-30 389.5,-30 389.5,-10 369.5,-10"/>
<text text-anchor="start" x="393.17" y="-15.4" font-family="Times-12" font-size="14.00"> &#160;Providers</text>
<polygon fill="#fb8072" stroke="transparent" points="465.5,-10 465.5,-30 485.5,-30 485.5,-10 465.5,-10"/>
<text text-anchor="start" x="489.23" y="-15.4" font-family="Times-12" font-size="14.00"> &#160;Exports</text>
<g id="clust1" class="cluster">
<title>cluster_UserModule</title>
<polygon fill="none" stroke="black" stroke-dasharray="1,5" points="8,-70 8,-268 607,-268 607,-70 8,-70"/>
</g>
<g id="clust4" class="cluster">
<title>cluster_UserModule_exports</title>
<polygon fill="none" stroke="black" points="233,-208 233,-260 337,-260 337,-208 233,-208"/>
</g>
<g id="clust6" class="cluster">
<title>cluster_UserModule_providers</title>
<polygon fill="none" stroke="black" points="16,-78 16,-130 599,-130 599,-78 16,-78"/>
</g>
<!-- UserService  -->
<g id="node1" class="node">
<title>UserService </title>
<polygon fill="#fb8072" stroke="black" points="328.9,-252 241.1,-252 241.1,-216 328.9,-216 328.9,-252"/>
<text text-anchor="middle" x="285" y="-229.8" font-family="Times,serif" font-size="14.00">UserService </text>
</g>
<!-- UserModule -->
<g id="node2" class="node">
<title>UserModule</title>
<polygon fill="#8dd3c7" stroke="black" points="327.98,-187 324.98,-191 303.98,-191 300.98,-187 242.02,-187 242.02,-151 327.98,-151 327.98,-187"/>
<text text-anchor="middle" x="285" y="-164.8" font-family="Times,serif" font-size="14.00">UserModule</text>
</g>
<!-- UserModule&#45;&gt;UserService  -->
<g id="edge1" class="edge">
<title>UserModule&#45;&gt;UserService </title>
<path fill="none" stroke="black" stroke-dasharray="5,2" d="M285,-187.11C285,-187.11 285,-205.99 285,-205.99"/>
<polygon fill="black" stroke="black" points="281.5,-205.99 285,-215.99 288.5,-205.99 281.5,-205.99"/>
</g>
<!-- CompanyService -->
<g id="node3" class="node">
<title>CompanyService</title>
<ellipse fill="#fdb462" stroke="black" cx="513" cy="-104" rx="77.59" ry="18"/>
<text text-anchor="middle" x="513" y="-99.8" font-family="Times,serif" font-size="14.00">CompanyService</text>
</g>
<!-- CompanyService&#45;&gt;UserModule -->
<g id="edge2" class="edge">
<title>CompanyService&#45;&gt;UserModule</title>
<path fill="none" stroke="black" d="M513,-122.11C513,-141.34 513,-169 513,-169 513,-169 338.15,-169 338.15,-169"/>
<polygon fill="black" stroke="black" points="338.15,-165.5 328.15,-169 338.15,-172.5 338.15,-165.5"/>
</g>
<!-- MenuService -->
<g id="node4" class="node">
<title>MenuService</title>
<ellipse fill="#fdb462" stroke="black" cx="355" cy="-104" rx="62.54" ry="18"/>
<text text-anchor="middle" x="355" y="-99.8" font-family="Times,serif" font-size="14.00">MenuService</text>
</g>
<!-- MenuService&#45;&gt;UserModule -->
<g id="edge3" class="edge">
<title>MenuService&#45;&gt;UserModule</title>
<path fill="none" stroke="black" d="M310.23,-116.84C310.23,-116.84 310.23,-140.52 310.23,-140.52"/>
<polygon fill="black" stroke="black" points="306.73,-140.52 310.23,-150.52 313.73,-140.52 306.73,-140.52"/>
</g>
<!-- RoleService -->
<g id="node5" class="node">
<title>RoleService</title>
<ellipse fill="#fdb462" stroke="black" cx="216" cy="-104" rx="58.46" ry="18"/>
<text text-anchor="middle" x="216" y="-99.8" font-family="Times,serif" font-size="14.00">RoleService</text>
</g>
<!-- RoleService&#45;&gt;UserModule -->
<g id="edge4" class="edge">
<title>RoleService&#45;&gt;UserModule</title>
<path fill="none" stroke="black" d="M258.12,-116.53C258.12,-116.53 258.12,-140.85 258.12,-140.85"/>
<polygon fill="black" stroke="black" points="254.62,-140.85 258.12,-150.85 261.62,-140.85 254.62,-140.85"/>
</g>
<!-- UserService -->
<g id="node6" class="node">
<title>UserService</title>
<ellipse fill="#fdb462" stroke="black" cx="82" cy="-104" rx="58.44" ry="18"/>
<text text-anchor="middle" x="82" y="-99.8" font-family="Times,serif" font-size="14.00">UserService</text>
</g>
<!-- UserService&#45;&gt;UserModule -->
<g id="edge5" class="edge">
<title>UserService&#45;&gt;UserModule</title>
<path fill="none" stroke="black" d="M82,-122.11C82,-141.34 82,-169 82,-169 82,-169 231.95,-169 231.95,-169"/>
<polygon fill="black" stroke="black" points="231.95,-172.5 241.95,-169 231.95,-165.5 231.95,-172.5"/>
</g>
</g>
</svg>
