<?xml version="1.0" encoding="UTF-8" standalone="no"?>
<!DOCTYPE svg PUBLIC "-//W3C//DTD SVG 1.1//EN"
 "http://www.w3.org/Graphics/SVG/1.1/DTD/svg11.dtd">
<!-- Generated by graphviz version 2.47.0 (20210316.0004)
 -->
<!-- Title: dependencies Pages: 1 -->
<svg width="910pt" height="211pt"
 viewBox="0.00 0.00 910.00 211.00" xmlns="http://www.w3.org/2000/svg" xmlns:xlink="http://www.w3.org/1999/xlink">
<g id="graph0" class="graph" transform="scale(1 1) rotate(0) translate(4 207)">
<title>dependencies</title>
<polygon fill="white" stroke="transparent" points="-4,4 -4,-207 906,-207 906,4 -4,4"/>
<text text-anchor="start" x="430.01" y="-42.4" font-family="Times-12" font-weight="bold" font-size="14.00">Legend</text>
<polygon fill="#ffffb3" stroke="transparent" points="217,-10 217,-30 237,-30 237,-10 217,-10"/>
<text text-anchor="start" x="240.63" y="-15.4" font-family="Times-12" font-size="14.00"> &#160;Declarations</text>
<polygon fill="#8dd3c7" stroke="transparent" points="330,-10 330,-30 350,-30 350,-10 330,-10"/>
<text text-anchor="start" x="353.73" y="-15.4" font-family="Times-12" font-size="14.00"> &#160;Module</text>
<polygon fill="#80b1d3" stroke="transparent" points="416,-10 416,-30 436,-30 436,-10 416,-10"/>
<text text-anchor="start" x="439.78" y="-15.4" font-family="Times-12" font-size="14.00"> &#160;Bootstrap</text>
<polygon fill="#fdb462" stroke="transparent" points="513,-10 513,-30 533,-30 533,-10 513,-10"/>
<text text-anchor="start" x="536.67" y="-15.4" font-family="Times-12" font-size="14.00"> &#160;Providers</text>
<polygon fill="#fb8072" stroke="transparent" points="609,-10 609,-30 629,-30 629,-10 609,-10"/>
<text text-anchor="start" x="632.73" y="-15.4" font-family="Times-12" font-size="14.00"> &#160;Exports</text>
<g id="clust1" class="cluster">
<title>cluster_AuthModule</title>
<polygon fill="none" stroke="black" stroke-dasharray="1,5" points="8,-70 8,-195 894,-195 894,-70 8,-70"/>
</g>
<g id="clust6" class="cluster">
<title>cluster_AuthModule_providers</title>
<polygon fill="none" stroke="black" points="16,-78 16,-130 886,-130 886,-78 16,-78"/>
</g>
<!-- AuthService -->
<g id="node1" class="node">
<title>AuthService</title>
<ellipse fill="#fdb462" stroke="black" cx="819" cy="-104" rx="59.11" ry="18"/>
<text text-anchor="middle" x="819" y="-99.8" font-family="Times,serif" font-size="14.00">AuthService</text>
</g>
<!-- AuthModule -->
<g id="node7" class="node">
<title>AuthModule</title>
<polygon fill="#8dd3c7" stroke="black" points="477.55,-187 474.55,-191 453.55,-191 450.55,-187 390.45,-187 390.45,-151 477.55,-151 477.55,-187"/>
<text text-anchor="middle" x="434" y="-164.8" font-family="Times,serif" font-size="14.00">AuthModule</text>
</g>
<!-- AuthService&#45;&gt;AuthModule -->
<g id="edge1" class="edge">
<title>AuthService&#45;&gt;AuthModule</title>
<path fill="none" stroke="black" d="M819,-122.28C819,-143.32 819,-175 819,-175 819,-175 487.79,-175 487.79,-175"/>
<polygon fill="black" stroke="black" points="487.79,-171.5 477.79,-175 487.79,-178.5 487.79,-171.5"/>
</g>
<!-- BcryptService -->
<g id="node2" class="node">
<title>BcryptService</title>
<ellipse fill="#fdb462" stroke="black" cx="675" cy="-104" rx="66.05" ry="18"/>
<text text-anchor="middle" x="675" y="-99.8" font-family="Times,serif" font-size="14.00">BcryptService</text>
</g>
<!-- BcryptService&#45;&gt;AuthModule -->
<g id="edge2" class="edge">
<title>BcryptService&#45;&gt;AuthModule</title>
<path fill="none" stroke="black" d="M675,-122.02C675,-139.37 675,-163 675,-163 675,-163 487.64,-163 487.64,-163"/>
<polygon fill="black" stroke="black" points="487.64,-159.5 477.64,-163 487.64,-166.5 487.64,-159.5"/>
</g>
<!-- CompanyService -->
<g id="node3" class="node">
<title>CompanyService</title>
<ellipse fill="#fdb462" stroke="black" cx="513" cy="-104" rx="77.59" ry="18"/>
<text text-anchor="middle" x="513" y="-99.8" font-family="Times,serif" font-size="14.00">CompanyService</text>
</g>
<!-- CompanyService&#45;&gt;AuthModule -->
<g id="edge3" class="edge">
<title>CompanyService&#45;&gt;AuthModule</title>
<path fill="none" stroke="black" d="M456.61,-116.53C456.61,-116.53 456.61,-140.85 456.61,-140.85"/>
<polygon fill="black" stroke="black" points="453.11,-140.85 456.61,-150.85 460.11,-140.85 453.11,-140.85"/>
</g>
<!-- MenuService -->
<g id="node4" class="node">
<title>MenuService</title>
<ellipse fill="#fdb462" stroke="black" cx="355" cy="-104" rx="62.54" ry="18"/>
<text text-anchor="middle" x="355" y="-99.8" font-family="Times,serif" font-size="14.00">MenuService</text>
</g>
<!-- MenuService&#45;&gt;AuthModule -->
<g id="edge4" class="edge">
<title>MenuService&#45;&gt;AuthModule</title>
<path fill="none" stroke="black" d="M403.87,-115.32C403.87,-115.32 403.87,-140.94 403.87,-140.94"/>
<polygon fill="black" stroke="black" points="400.37,-140.94 403.87,-150.94 407.37,-140.94 400.37,-140.94"/>
</g>
<!-- RoleService -->
<g id="node5" class="node">
<title>RoleService</title>
<ellipse fill="#fdb462" stroke="black" cx="216" cy="-104" rx="58.46" ry="18"/>
<text text-anchor="middle" x="216" y="-99.8" font-family="Times,serif" font-size="14.00">RoleService</text>
</g>
<!-- RoleService&#45;&gt;AuthModule -->
<g id="edge5" class="edge">
<title>RoleService&#45;&gt;AuthModule</title>
<path fill="none" stroke="black" d="M216,-122.02C216,-139.37 216,-163 216,-163 216,-163 380.41,-163 380.41,-163"/>
<polygon fill="black" stroke="black" points="380.41,-166.5 390.41,-163 380.41,-159.5 380.41,-166.5"/>
</g>
<!-- UserService -->
<g id="node6" class="node">
<title>UserService</title>
<ellipse fill="#fdb462" stroke="black" cx="82" cy="-104" rx="58.44" ry="18"/>
<text text-anchor="middle" x="82" y="-99.8" font-family="Times,serif" font-size="14.00">UserService</text>
</g>
<!-- UserService&#45;&gt;AuthModule -->
<g id="edge6" class="edge">
<title>UserService&#45;&gt;AuthModule</title>
<path fill="none" stroke="black" d="M82,-122.28C82,-143.32 82,-175 82,-175 82,-175 380.13,-175 380.13,-175"/>
<polygon fill="black" stroke="black" points="380.13,-178.5 390.13,-175 380.13,-171.5 380.13,-178.5"/>
</g>
</g>
</svg>
