<?xml version="1.0" encoding="UTF-8" standalone="no"?>
<!DOCTYPE svg PUBLIC "-//W3C//DTD SVG 1.1//EN"
 "http://www.w3.org/Graphics/SVG/1.1/DTD/svg11.dtd">
<!-- Generated by graphviz version 2.47.0 (20210316.0004)
 -->
<!-- Title: dependencies Pages: 1 -->
<svg width="760pt" height="284pt"
 viewBox="0.00 0.00 760.00 284.00" xmlns="http://www.w3.org/2000/svg" xmlns:xlink="http://www.w3.org/1999/xlink">
<g id="graph0" class="graph" transform="scale(1 1) rotate(0) translate(4 280)">
<title>dependencies</title>
<polygon fill="white" stroke="transparent" points="-4,4 -4,-280 756,-280 756,4 -4,4"/>
<text text-anchor="start" x="355.01" y="-42.4" font-family="Times-12" font-weight="bold" font-size="14.00">Legend</text>
<polygon fill="#ffffb3" stroke="transparent" points="142,-10 142,-30 162,-30 162,-10 142,-10"/>
<text text-anchor="start" x="165.63" y="-15.4" font-family="Times-12" font-size="14.00"> &#160;Declarations</text>
<polygon fill="#8dd3c7" stroke="transparent" points="255,-10 255,-30 275,-30 275,-10 255,-10"/>
<text text-anchor="start" x="278.73" y="-15.4" font-family="Times-12" font-size="14.00"> &#160;Module</text>
<polygon fill="#80b1d3" stroke="transparent" points="341,-10 341,-30 361,-30 361,-10 341,-10"/>
<text text-anchor="start" x="364.78" y="-15.4" font-family="Times-12" font-size="14.00"> &#160;Bootstrap</text>
<polygon fill="#fdb462" stroke="transparent" points="438,-10 438,-30 458,-30 458,-10 438,-10"/>
<text text-anchor="start" x="461.67" y="-15.4" font-family="Times-12" font-size="14.00"> &#160;Providers</text>
<polygon fill="#fb8072" stroke="transparent" points="534,-10 534,-30 554,-30 554,-10 534,-10"/>
<text text-anchor="start" x="557.73" y="-15.4" font-family="Times-12" font-size="14.00"> &#160;Exports</text>
<g id="clust1" class="cluster">
<title>cluster_OrderModule</title>
<polygon fill="none" stroke="black" stroke-dasharray="1,5" points="8,-70 8,-268 744,-268 744,-70 8,-70"/>
</g>
<g id="clust6" class="cluster">
<title>cluster_OrderModule_providers</title>
<polygon fill="none" stroke="black" points="16,-78 16,-130 736,-130 736,-78 16,-78"/>
</g>
<g id="clust4" class="cluster">
<title>cluster_OrderModule_exports</title>
<polygon fill="none" stroke="black" points="327,-208 327,-260 437,-260 437,-208 327,-208"/>
</g>
<!-- OrderService  -->
<g id="node1" class="node">
<title>OrderService </title>
<polygon fill="#fb8072" stroke="black" points="429.12,-252 334.88,-252 334.88,-216 429.12,-216 429.12,-252"/>
<text text-anchor="middle" x="382" y="-229.8" font-family="Times,serif" font-size="14.00">OrderService </text>
</g>
<!-- OrderModule -->
<g id="node2" class="node">
<title>OrderModule</title>
<polygon fill="#8dd3c7" stroke="black" points="428.19,-187 425.19,-191 404.19,-191 401.19,-187 335.81,-187 335.81,-151 428.19,-151 428.19,-187"/>
<text text-anchor="middle" x="382" y="-164.8" font-family="Times,serif" font-size="14.00">OrderModule</text>
</g>
<!-- OrderModule&#45;&gt;OrderService  -->
<g id="edge1" class="edge">
<title>OrderModule&#45;&gt;OrderService </title>
<path fill="none" stroke="black" stroke-dasharray="5,2" d="M382,-187.11C382,-187.11 382,-205.99 382,-205.99"/>
<polygon fill="black" stroke="black" points="378.5,-205.99 382,-215.99 385.5,-205.99 378.5,-205.99"/>
</g>
<!-- OrderService -->
<g id="node3" class="node">
<title>OrderService</title>
<ellipse fill="#fdb462" stroke="black" cx="665" cy="-104" rx="62.52" ry="18"/>
<text text-anchor="middle" x="665" y="-99.8" font-family="Times,serif" font-size="14.00">OrderService</text>
</g>
<!-- OrderService&#45;&gt;OrderModule -->
<g id="edge2" class="edge">
<title>OrderService&#45;&gt;OrderModule</title>
<path fill="none" stroke="black" d="M665,-122.11C665,-141.34 665,-169 665,-169 665,-169 438.1,-169 438.1,-169"/>
<polygon fill="black" stroke="black" points="438.1,-165.5 428.1,-169 438.1,-172.5 438.1,-165.5"/>
</g>
<!-- ProductCategoryService -->
<g id="node4" class="node">
<title>ProductCategoryService</title>
<ellipse fill="#fdb462" stroke="black" cx="479" cy="-104" rx="105.36" ry="18"/>
<text text-anchor="middle" x="479" y="-99.8" font-family="Times,serif" font-size="14.00">ProductCategoryService</text>
</g>
<!-- ProductCategoryService&#45;&gt;OrderModule -->
<g id="edge3" class="edge">
<title>ProductCategoryService&#45;&gt;OrderModule</title>
<path fill="none" stroke="black" d="M400.83,-116.23C400.83,-116.23 400.83,-140.68 400.83,-140.68"/>
<polygon fill="black" stroke="black" points="397.33,-140.68 400.83,-150.68 404.33,-140.68 397.33,-140.68"/>
</g>
<!-- ProductService -->
<g id="node5" class="node">
<title>ProductService</title>
<ellipse fill="#fdb462" stroke="black" cx="286" cy="-104" rx="70.06" ry="18"/>
<text text-anchor="middle" x="286" y="-99.8" font-family="Times,serif" font-size="14.00">ProductService</text>
</g>
<!-- ProductService&#45;&gt;OrderModule -->
<g id="edge4" class="edge">
<title>ProductService&#45;&gt;OrderModule</title>
<path fill="none" stroke="black" d="M345.97,-113.31C345.97,-113.31 345.97,-140.85 345.97,-140.85"/>
<polygon fill="black" stroke="black" points="342.47,-140.85 345.97,-150.85 349.47,-140.85 342.47,-140.85"/>
</g>
<!-- ProductUnitService -->
<g id="node6" class="node">
<title>ProductUnitService</title>
<ellipse fill="#fdb462" stroke="black" cx="111" cy="-104" rx="87.4" ry="18"/>
<text text-anchor="middle" x="111" y="-99.8" font-family="Times,serif" font-size="14.00">ProductUnitService</text>
</g>
<!-- ProductUnitService&#45;&gt;OrderModule -->
<g id="edge5" class="edge">
<title>ProductUnitService&#45;&gt;OrderModule</title>
<path fill="none" stroke="black" d="M111,-122.11C111,-141.34 111,-169 111,-169 111,-169 325.72,-169 325.72,-169"/>
<polygon fill="black" stroke="black" points="325.72,-172.5 335.72,-169 325.72,-165.5 325.72,-172.5"/>
</g>
</g>
</svg>
