<?xml version="1.0" encoding="UTF-8" standalone="no"?>
<!DOCTYPE svg PUBLIC "-//W3C//DTD SVG 1.1//EN"
 "http://www.w3.org/Graphics/SVG/1.1/DTD/svg11.dtd">
<!-- Generated by graphviz version 2.47.0 (20210316.0004)
 -->
<!-- Title: dependencies Pages: 1 -->
<svg width="504pt" height="284pt"
 viewBox="0.00 0.00 504.00 284.00" xmlns="http://www.w3.org/2000/svg" xmlns:xlink="http://www.w3.org/1999/xlink">
<g id="graph0" class="graph" transform="scale(1 1) rotate(0) translate(4 280)">
<title>dependencies</title>
<polygon fill="white" stroke="transparent" points="-4,4 -4,-280 500,-280 500,4 -4,4"/>
<text text-anchor="start" x="227.01" y="-42.4" font-family="Times-12" font-weight="bold" font-size="14.00">Legend</text>
<polygon fill="#ffffb3" stroke="transparent" points="14,-10 14,-30 34,-30 34,-10 14,-10"/>
<text text-anchor="start" x="37.63" y="-15.4" font-family="Times-12" font-size="14.00"> &#160;Declarations</text>
<polygon fill="#8dd3c7" stroke="transparent" points="127,-10 127,-30 147,-30 147,-10 127,-10"/>
<text text-anchor="start" x="150.73" y="-15.4" font-family="Times-12" font-size="14.00"> &#160;Module</text>
<polygon fill="#80b1d3" stroke="transparent" points="213,-10 213,-30 233,-30 233,-10 213,-10"/>
<text text-anchor="start" x="236.78" y="-15.4" font-family="Times-12" font-size="14.00"> &#160;Bootstrap</text>
<polygon fill="#fdb462" stroke="transparent" points="310,-10 310,-30 330,-30 330,-10 310,-10"/>
<text text-anchor="start" x="333.67" y="-15.4" font-family="Times-12" font-size="14.00"> &#160;Providers</text>
<polygon fill="#fb8072" stroke="transparent" points="406,-10 406,-30 426,-30 426,-10 406,-10"/>
<text text-anchor="start" x="429.73" y="-15.4" font-family="Times-12" font-size="14.00"> &#160;Exports</text>
<g id="clust1" class="cluster">
<title>cluster_CompanyModule</title>
<polygon fill="none" stroke="black" stroke-dasharray="1,5" points="82.5,-70 82.5,-268 413.5,-268 413.5,-70 82.5,-70"/>
</g>
<g id="clust4" class="cluster">
<title>cluster_CompanyModule_exports</title>
<polygon fill="none" stroke="black" points="174.5,-208 174.5,-260 306.5,-260 306.5,-208 174.5,-208"/>
</g>
<g id="clust6" class="cluster">
<title>cluster_CompanyModule_providers</title>
<polygon fill="none" stroke="black" points="90.5,-78 90.5,-130 405.5,-130 405.5,-78 90.5,-78"/>
</g>
<!-- CompanyService  -->
<g id="node1" class="node">
<title>CompanyService </title>
<polygon fill="#fb8072" stroke="black" points="298.42,-252 182.58,-252 182.58,-216 298.42,-216 298.42,-252"/>
<text text-anchor="middle" x="240.5" y="-229.8" font-family="Times,serif" font-size="14.00">CompanyService </text>
</g>
<!-- CompanyModule -->
<g id="node2" class="node">
<title>CompanyModule</title>
<polygon fill="#8dd3c7" stroke="black" points="297.49,-187 294.49,-191 273.49,-191 270.49,-187 183.51,-187 183.51,-151 297.49,-151 297.49,-187"/>
<text text-anchor="middle" x="240.5" y="-164.8" font-family="Times,serif" font-size="14.00">CompanyModule</text>
</g>
<!-- CompanyModule&#45;&gt;CompanyService  -->
<g id="edge1" class="edge">
<title>CompanyModule&#45;&gt;CompanyService </title>
<path fill="none" stroke="black" stroke-dasharray="5,2" d="M240.5,-187.11C240.5,-187.11 240.5,-205.99 240.5,-205.99"/>
<polygon fill="black" stroke="black" points="237,-205.99 240.5,-215.99 244,-205.99 237,-205.99"/>
</g>
<!-- CompanyService -->
<g id="node3" class="node">
<title>CompanyService</title>
<ellipse fill="#fdb462" stroke="black" cx="319.5" cy="-104" rx="77.59" ry="18"/>
<text text-anchor="middle" x="319.5" y="-99.8" font-family="Times,serif" font-size="14.00">CompanyService</text>
</g>
<!-- CompanyService&#45;&gt;CompanyModule -->
<g id="edge2" class="edge">
<title>CompanyService&#45;&gt;CompanyModule</title>
<path fill="none" stroke="black" d="M269.73,-118.1C269.73,-118.1 269.73,-140.72 269.73,-140.72"/>
<polygon fill="black" stroke="black" points="266.23,-140.72 269.73,-150.72 273.23,-140.72 266.23,-140.72"/>
</g>
<!-- MenuService -->
<g id="node4" class="node">
<title>MenuService</title>
<ellipse fill="#fdb462" stroke="black" cx="161.5" cy="-104" rx="62.54" ry="18"/>
<text text-anchor="middle" x="161.5" y="-99.8" font-family="Times,serif" font-size="14.00">MenuService</text>
</g>
<!-- MenuService&#45;&gt;CompanyModule -->
<g id="edge3" class="edge">
<title>MenuService&#45;&gt;CompanyModule</title>
<path fill="none" stroke="black" d="M203.76,-117.47C203.76,-117.47 203.76,-140.86 203.76,-140.86"/>
<polygon fill="black" stroke="black" points="200.26,-140.86 203.76,-150.86 207.26,-140.86 200.26,-140.86"/>
</g>
</g>
</svg>
