<?xml version="1.0" encoding="UTF-8" standalone="no"?>
<!DOCTYPE svg PUBLIC "-//W3C//DTD SVG 1.1//EN"
 "http://www.w3.org/Graphics/SVG/1.1/DTD/svg11.dtd">
<!-- Generated by graphviz version 2.47.0 (20210316.0004)
 -->
<!-- Title: dependencies Pages: 1 -->
<svg width="1670pt" height="211pt"
 viewBox="0.00 0.00 1670.00 211.00" xmlns="http://www.w3.org/2000/svg" xmlns:xlink="http://www.w3.org/1999/xlink">
<g id="graph0" class="graph" transform="scale(1 1) rotate(0) translate(4 207)">
<title>dependencies</title>
<polygon fill="white" stroke="transparent" points="-4,4 -4,-207 1666,-207 1666,4 -4,4"/>
<text text-anchor="start" x="810.01" y="-42.4" font-family="Times-12" font-weight="bold" font-size="14.00">Legend</text>
<polygon fill="#ffffb3" stroke="transparent" points="597,-10 597,-30 617,-30 617,-10 597,-10"/>
<text text-anchor="start" x="620.63" y="-15.4" font-family="Times-12" font-size="14.00"> &#160;Declarations</text>
<polygon fill="#8dd3c7" stroke="transparent" points="710,-10 710,-30 730,-30 730,-10 710,-10"/>
<text text-anchor="start" x="733.73" y="-15.4" font-family="Times-12" font-size="14.00"> &#160;Module</text>
<polygon fill="#80b1d3" stroke="transparent" points="796,-10 796,-30 816,-30 816,-10 796,-10"/>
<text text-anchor="start" x="819.78" y="-15.4" font-family="Times-12" font-size="14.00"> &#160;Bootstrap</text>
<polygon fill="#fdb462" stroke="transparent" points="893,-10 893,-30 913,-30 913,-10 893,-10"/>
<text text-anchor="start" x="916.67" y="-15.4" font-family="Times-12" font-size="14.00"> &#160;Providers</text>
<polygon fill="#fb8072" stroke="transparent" points="989,-10 989,-30 1009,-30 1009,-10 989,-10"/>
<text text-anchor="start" x="1012.73" y="-15.4" font-family="Times-12" font-size="14.00"> &#160;Exports</text>
<g id="clust1" class="cluster">
<title>cluster_AppModule</title>
<polygon fill="none" stroke="black" stroke-dasharray="1,5" points="8,-70 8,-195 1654,-195 1654,-70 8,-70"/>
</g>
<g id="clust3" class="cluster">
<title>cluster_AppModule_imports</title>
<polygon fill="none" stroke="black" points="16,-78 16,-130 1646,-130 1646,-78 16,-78"/>
</g>
<!-- AuthModule -->
<g id="node1" class="node">
<title>AuthModule</title>
<polygon fill="#8dd3c7" stroke="black" points="1637.55,-122 1634.55,-126 1613.55,-126 1610.55,-122 1550.45,-122 1550.45,-86 1637.55,-86 1637.55,-122"/>
<text text-anchor="middle" x="1594" y="-99.8" font-family="Times,serif" font-size="14.00">AuthModule</text>
</g>
<!-- AppModule -->
<g id="node14" class="node">
<title>AppModule</title>
<polygon fill="#8dd3c7" stroke="black" points="858.66,-187 855.66,-191 834.66,-191 831.66,-187 775.34,-187 775.34,-151 858.66,-151 858.66,-187"/>
<text text-anchor="middle" x="817" y="-164.8" font-family="Times,serif" font-size="14.00">AppModule</text>
</g>
<!-- AuthModule&#45;&gt;AppModule -->
<g id="edge1" class="edge">
<title>AuthModule&#45;&gt;AppModule</title>
<path fill="none" stroke="black" d="M1594,-122.09C1594,-145.13 1594,-182 1594,-182 1594,-182 868.77,-182 868.77,-182"/>
<polygon fill="black" stroke="black" points="868.77,-178.5 858.77,-182 868.77,-185.5 868.77,-178.5"/>
</g>
<!-- CompanyModule -->
<g id="node2" class="node">
<title>CompanyModule</title>
<polygon fill="#8dd3c7" stroke="black" points="1531.99,-122 1528.99,-126 1507.99,-126 1504.99,-122 1418.01,-122 1418.01,-86 1531.99,-86 1531.99,-122"/>
<text text-anchor="middle" x="1475" y="-99.8" font-family="Times,serif" font-size="14.00">CompanyModule</text>
</g>
<!-- CompanyModule&#45;&gt;AppModule -->
<g id="edge2" class="edge">
<title>CompanyModule&#45;&gt;AppModule</title>
<path fill="none" stroke="black" d="M1475,-122.04C1475,-143.66 1475,-177 1475,-177 1475,-177 868.66,-177 868.66,-177"/>
<polygon fill="black" stroke="black" points="868.66,-173.5 858.66,-177 868.66,-180.5 868.66,-173.5"/>
</g>
<!-- CustomerModule -->
<g id="node3" class="node">
<title>CustomerModule</title>
<polygon fill="#8dd3c7" stroke="black" points="1399.99,-122 1396.99,-126 1375.99,-126 1372.99,-122 1286.01,-122 1286.01,-86 1399.99,-86 1399.99,-122"/>
<text text-anchor="middle" x="1343" y="-99.8" font-family="Times,serif" font-size="14.00">CustomerModule</text>
</g>
<!-- CustomerModule&#45;&gt;AppModule -->
<g id="edge3" class="edge">
<title>CustomerModule&#45;&gt;AppModule</title>
<path fill="none" stroke="black" d="M1343,-122.22C1343,-142.37 1343,-172 1343,-172 1343,-172 868.71,-172 868.71,-172"/>
<polygon fill="black" stroke="black" points="868.71,-168.5 858.71,-172 868.71,-175.5 868.71,-168.5"/>
</g>
<!-- Log4jsGlobalModule -->
<g id="node4" class="node">
<title>Log4jsGlobalModule</title>
<polygon fill="#8dd3c7" stroke="black" points="1268.04,-122 1265.04,-126 1244.04,-126 1241.04,-122 1131.96,-122 1131.96,-86 1268.04,-86 1268.04,-122"/>
<text text-anchor="middle" x="1200" y="-99.8" font-family="Times,serif" font-size="14.00">Log4jsGlobalModule</text>
</g>
<!-- Log4jsGlobalModule&#45;&gt;AppModule -->
<g id="edge4" class="edge">
<title>Log4jsGlobalModule&#45;&gt;AppModule</title>
<path fill="none" stroke="black" d="M1200,-122.22C1200,-140.83 1200,-167 1200,-167 1200,-167 868.72,-167 868.72,-167"/>
<polygon fill="black" stroke="black" points="868.72,-163.5 858.72,-167 868.72,-170.5 868.72,-163.5"/>
</g>
<!-- MenuModule -->
<g id="node5" class="node">
<title>MenuModule</title>
<polygon fill="#8dd3c7" stroke="black" points="1114.21,-122 1111.21,-126 1090.21,-126 1087.21,-122 1021.79,-122 1021.79,-86 1114.21,-86 1114.21,-122"/>
<text text-anchor="middle" x="1068" y="-99.8" font-family="Times,serif" font-size="14.00">MenuModule</text>
</g>
<!-- MenuModule&#45;&gt;AppModule -->
<g id="edge5" class="edge">
<title>MenuModule&#45;&gt;AppModule</title>
<path fill="none" stroke="black" d="M1068,-122.03C1068,-139.06 1068,-162 1068,-162 1068,-162 868.73,-162 868.73,-162"/>
<polygon fill="black" stroke="black" points="868.73,-158.5 858.73,-162 868.73,-165.5 868.73,-158.5"/>
</g>
<!-- OrderModule -->
<g id="node6" class="node">
<title>OrderModule</title>
<polygon fill="#8dd3c7" stroke="black" points="1004.19,-122 1001.19,-126 980.19,-126 977.19,-122 911.81,-122 911.81,-86 1004.19,-86 1004.19,-122"/>
<text text-anchor="middle" x="958" y="-99.8" font-family="Times,serif" font-size="14.00">OrderModule</text>
</g>
<!-- OrderModule&#45;&gt;AppModule -->
<g id="edge6" class="edge">
<title>OrderModule&#45;&gt;AppModule</title>
<path fill="none" stroke="black" d="M958,-122.24C958,-137.57 958,-157 958,-157 958,-157 868.92,-157 868.92,-157"/>
<polygon fill="black" stroke="black" points="868.92,-153.5 858.92,-157 868.92,-160.5 868.92,-153.5"/>
</g>
<!-- ProductCategoryModule -->
<g id="node7" class="node">
<title>ProductCategoryModule</title>
<polygon fill="#8dd3c7" stroke="black" points="894.42,-122 891.42,-126 870.42,-126 867.42,-122 739.58,-122 739.58,-86 894.42,-86 894.42,-122"/>
<text text-anchor="middle" x="817" y="-99.8" font-family="Times,serif" font-size="14.00">ProductCategoryModule</text>
</g>
<!-- ProductCategoryModule&#45;&gt;AppModule -->
<g id="edge7" class="edge">
<title>ProductCategoryModule&#45;&gt;AppModule</title>
<path fill="none" stroke="black" d="M817,-122.11C817,-122.11 817,-140.99 817,-140.99"/>
<polygon fill="black" stroke="black" points="813.5,-140.99 817,-150.99 820.5,-140.99 813.5,-140.99"/>
</g>
<!-- ProductModule -->
<g id="node8" class="node">
<title>ProductModule</title>
<polygon fill="#8dd3c7" stroke="black" points="721.6,-122 718.6,-126 697.6,-126 694.6,-122 618.4,-122 618.4,-86 721.6,-86 721.6,-122"/>
<text text-anchor="middle" x="670" y="-99.8" font-family="Times,serif" font-size="14.00">ProductModule</text>
</g>
<!-- ProductModule&#45;&gt;AppModule -->
<g id="edge8" class="edge">
<title>ProductModule&#45;&gt;AppModule</title>
<path fill="none" stroke="black" d="M670,-122.24C670,-137.57 670,-157 670,-157 670,-157 765.27,-157 765.27,-157"/>
<polygon fill="black" stroke="black" points="765.27,-160.5 775.27,-157 765.27,-153.5 765.27,-160.5"/>
</g>
<!-- ProductUnitModule -->
<g id="node9" class="node">
<title>ProductUnitModule</title>
<polygon fill="#8dd3c7" stroke="black" points="599.99,-122 596.99,-126 575.99,-126 572.99,-122 472.01,-122 472.01,-86 599.99,-86 599.99,-122"/>
<text text-anchor="middle" x="536" y="-99.8" font-family="Times,serif" font-size="14.00">ProductUnitModule</text>
</g>
<!-- ProductUnitModule&#45;&gt;AppModule -->
<g id="edge9" class="edge">
<title>ProductUnitModule&#45;&gt;AppModule</title>
<path fill="none" stroke="black" d="M536,-122.03C536,-139.06 536,-162 536,-162 536,-162 765.23,-162 765.23,-162"/>
<polygon fill="black" stroke="black" points="765.23,-165.5 775.23,-162 765.23,-158.5 765.23,-165.5"/>
</g>
<!-- RedisModule -->
<g id="node10" class="node">
<title>RedisModule</title>
<polygon fill="#8dd3c7" stroke="black" points="453.94,-122 450.94,-126 429.94,-126 426.94,-122 362.06,-122 362.06,-86 453.94,-86 453.94,-122"/>
<text text-anchor="middle" x="408" y="-99.8" font-family="Times,serif" font-size="14.00">RedisModule</text>
</g>
<!-- RedisModule&#45;&gt;AppModule -->
<g id="edge10" class="edge">
<title>RedisModule&#45;&gt;AppModule</title>
<path fill="none" stroke="black" d="M408,-122.22C408,-140.83 408,-167 408,-167 408,-167 765.15,-167 765.15,-167"/>
<polygon fill="black" stroke="black" points="765.15,-170.5 775.15,-167 765.15,-163.5 765.15,-170.5"/>
</g>
<!-- RoleModule -->
<g id="node11" class="node">
<title>RoleModule</title>
<polygon fill="#8dd3c7" stroke="black" points="343.99,-122 340.99,-126 319.99,-126 316.99,-122 258.01,-122 258.01,-86 343.99,-86 343.99,-122"/>
<text text-anchor="middle" x="301" y="-99.8" font-family="Times,serif" font-size="14.00">RoleModule</text>
</g>
<!-- RoleModule&#45;&gt;AppModule -->
<g id="edge11" class="edge">
<title>RoleModule&#45;&gt;AppModule</title>
<path fill="none" stroke="black" d="M301,-122.22C301,-142.37 301,-172 301,-172 301,-172 765.21,-172 765.21,-172"/>
<polygon fill="black" stroke="black" points="765.21,-175.5 775.21,-172 765.21,-168.5 765.21,-175.5"/>
</g>
<!-- TemplateModule -->
<g id="node12" class="node">
<title>TemplateModule</title>
<polygon fill="#8dd3c7" stroke="black" points="240.42,-122 237.42,-126 216.42,-126 213.42,-122 127.58,-122 127.58,-86 240.42,-86 240.42,-122"/>
<text text-anchor="middle" x="184" y="-99.8" font-family="Times,serif" font-size="14.00">TemplateModule</text>
</g>
<!-- TemplateModule&#45;&gt;AppModule -->
<g id="edge12" class="edge">
<title>TemplateModule&#45;&gt;AppModule</title>
<path fill="none" stroke="black" d="M184,-122.04C184,-143.66 184,-177 184,-177 184,-177 764.98,-177 764.98,-177"/>
<polygon fill="black" stroke="black" points="764.98,-180.5 774.98,-177 764.98,-173.5 764.98,-180.5"/>
</g>
<!-- UserModule -->
<g id="node13" class="node">
<title>UserModule</title>
<polygon fill="#8dd3c7" stroke="black" points="109.98,-122 106.98,-126 85.98,-126 82.98,-122 24.02,-122 24.02,-86 109.98,-86 109.98,-122"/>
<text text-anchor="middle" x="67" y="-99.8" font-family="Times,serif" font-size="14.00">UserModule</text>
</g>
<!-- UserModule&#45;&gt;AppModule -->
<g id="edge13" class="edge">
<title>UserModule&#45;&gt;AppModule</title>
<path fill="none" stroke="black" d="M67,-122.09C67,-145.13 67,-182 67,-182 67,-182 765.34,-182 765.34,-182"/>
<polygon fill="black" stroke="black" points="765.34,-185.5 775.34,-182 765.34,-178.5 765.34,-185.5"/>
</g>
</g>
</svg>
