<?xml version="1.0" encoding="UTF-8" standalone="no"?>
<!DOCTYPE svg PUBLIC "-//W3C//DTD SVG 1.1//EN"
 "http://www.w3.org/Graphics/SVG/1.1/DTD/svg11.dtd">
<!-- Generated by graphviz version 2.47.0 (20210316.0004)
 -->
<!-- Title: dependencies Pages: 1 -->
<svg width="642pt" height="211pt"
 viewBox="0.00 0.00 642.00 211.00" xmlns="http://www.w3.org/2000/svg" xmlns:xlink="http://www.w3.org/1999/xlink">
<g id="graph0" class="graph" transform="scale(1 1) rotate(0) translate(4 207)">
<title>dependencies</title>
<polygon fill="white" stroke="transparent" points="-4,4 -4,-207 638,-207 638,4 -4,4"/>
<text text-anchor="start" x="296.01" y="-42.4" font-family="Times-12" font-weight="bold" font-size="14.00">Legend</text>
<polygon fill="#ffffb3" stroke="transparent" points="83,-10 83,-30 103,-30 103,-10 83,-10"/>
<text text-anchor="start" x="106.63" y="-15.4" font-family="Times-12" font-size="14.00"> &#160;Declarations</text>
<polygon fill="#8dd3c7" stroke="transparent" points="196,-10 196,-30 216,-30 216,-10 196,-10"/>
<text text-anchor="start" x="219.73" y="-15.4" font-family="Times-12" font-size="14.00"> &#160;Module</text>
<polygon fill="#80b1d3" stroke="transparent" points="282,-10 282,-30 302,-30 302,-10 282,-10"/>
<text text-anchor="start" x="305.78" y="-15.4" font-family="Times-12" font-size="14.00"> &#160;Bootstrap</text>
<polygon fill="#fdb462" stroke="transparent" points="379,-10 379,-30 399,-30 399,-10 379,-10"/>
<text text-anchor="start" x="402.67" y="-15.4" font-family="Times-12" font-size="14.00"> &#160;Providers</text>
<polygon fill="#fb8072" stroke="transparent" points="475,-10 475,-30 495,-30 495,-10 475,-10"/>
<text text-anchor="start" x="498.73" y="-15.4" font-family="Times-12" font-size="14.00"> &#160;Exports</text>
<g id="clust1" class="cluster">
<title>cluster_AppModule</title>
<polygon fill="none" stroke="black" stroke-dasharray="1,5" points="8,-70 8,-195 626,-195 626,-70 8,-70"/>
</g>
<g id="clust3" class="cluster">
<title>cluster_AppModule_imports</title>
<polygon fill="none" stroke="black" points="16,-78 16,-130 618,-130 618,-78 16,-78"/>
</g>
<!-- AuthModule -->
<g id="node1" class="node">
<title>AuthModule</title>
<polygon fill="#8dd3c7" stroke="black" points="609.55,-122 606.55,-126 585.55,-126 582.55,-122 522.45,-122 522.45,-86 609.55,-86 609.55,-122"/>
<text text-anchor="middle" x="566" y="-99.8" font-family="Times,serif" font-size="14.00">AuthModule</text>
</g>
<!-- AppModule -->
<g id="node6" class="node">
<title>AppModule</title>
<polygon fill="#8dd3c7" stroke="black" points="345.66,-187 342.66,-191 321.66,-191 318.66,-187 262.34,-187 262.34,-151 345.66,-151 345.66,-187"/>
<text text-anchor="middle" x="304" y="-164.8" font-family="Times,serif" font-size="14.00">AppModule</text>
</g>
<!-- AuthModule&#45;&gt;AppModule -->
<g id="edge1" class="edge">
<title>AuthModule&#45;&gt;AppModule</title>
<path fill="none" stroke="black" d="M566,-122.28C566,-143.32 566,-175 566,-175 566,-175 355.8,-175 355.8,-175"/>
<polygon fill="black" stroke="black" points="355.8,-171.5 345.8,-175 355.8,-178.5 355.8,-171.5"/>
</g>
<!-- Log4jsGlobalModule -->
<g id="node2" class="node">
<title>Log4jsGlobalModule</title>
<polygon fill="#8dd3c7" stroke="black" points="504.04,-122 501.04,-126 480.04,-126 477.04,-122 367.96,-122 367.96,-86 504.04,-86 504.04,-122"/>
<text text-anchor="middle" x="436" y="-99.8" font-family="Times,serif" font-size="14.00">Log4jsGlobalModule</text>
</g>
<!-- Log4jsGlobalModule&#45;&gt;AppModule -->
<g id="edge2" class="edge">
<title>Log4jsGlobalModule&#45;&gt;AppModule</title>
<path fill="none" stroke="black" d="M436,-122.02C436,-139.37 436,-163 436,-163 436,-163 355.77,-163 355.77,-163"/>
<polygon fill="black" stroke="black" points="355.77,-159.5 345.77,-163 355.77,-166.5 355.77,-159.5"/>
</g>
<!-- MenuModule -->
<g id="node3" class="node">
<title>MenuModule</title>
<polygon fill="#8dd3c7" stroke="black" points="350.21,-122 347.21,-126 326.21,-126 323.21,-122 257.79,-122 257.79,-86 350.21,-86 350.21,-122"/>
<text text-anchor="middle" x="304" y="-99.8" font-family="Times,serif" font-size="14.00">MenuModule</text>
</g>
<!-- MenuModule&#45;&gt;AppModule -->
<g id="edge3" class="edge">
<title>MenuModule&#45;&gt;AppModule</title>
<path fill="none" stroke="black" d="M304,-122.11C304,-122.11 304,-140.99 304,-140.99"/>
<polygon fill="black" stroke="black" points="300.5,-140.99 304,-150.99 307.5,-140.99 300.5,-140.99"/>
</g>
<!-- TemplateModule -->
<g id="node4" class="node">
<title>TemplateModule</title>
<polygon fill="#8dd3c7" stroke="black" points="240.42,-122 237.42,-126 216.42,-126 213.42,-122 127.58,-122 127.58,-86 240.42,-86 240.42,-122"/>
<text text-anchor="middle" x="184" y="-99.8" font-family="Times,serif" font-size="14.00">TemplateModule</text>
</g>
<!-- TemplateModule&#45;&gt;AppModule -->
<g id="edge4" class="edge">
<title>TemplateModule&#45;&gt;AppModule</title>
<path fill="none" stroke="black" d="M184,-122.02C184,-139.37 184,-163 184,-163 184,-163 252.03,-163 252.03,-163"/>
<polygon fill="black" stroke="black" points="252.03,-166.5 262.03,-163 252.03,-159.5 252.03,-166.5"/>
</g>
<!-- UserModule -->
<g id="node5" class="node">
<title>UserModule</title>
<polygon fill="#8dd3c7" stroke="black" points="109.98,-122 106.98,-126 85.98,-126 82.98,-122 24.02,-122 24.02,-86 109.98,-86 109.98,-122"/>
<text text-anchor="middle" x="67" y="-99.8" font-family="Times,serif" font-size="14.00">UserModule</text>
</g>
<!-- UserModule&#45;&gt;AppModule -->
<g id="edge5" class="edge">
<title>UserModule&#45;&gt;AppModule</title>
<path fill="none" stroke="black" d="M67,-122.28C67,-143.32 67,-175 67,-175 67,-175 252.17,-175 252.17,-175"/>
<polygon fill="black" stroke="black" points="252.17,-178.5 262.17,-175 252.17,-171.5 252.17,-178.5"/>
</g>
</g>
</svg>
