<?xml version="1.0" encoding="UTF-8" standalone="no"?>
<!DOCTYPE svg PUBLIC "-//W3C//DTD SVG 1.1//EN"
 "http://www.w3.org/Graphics/SVG/1.1/DTD/svg11.dtd">
<!-- Generated by graphviz version 2.47.0 (20210316.0004)
 -->
<!-- Title: dependencies Pages: 1 -->
<svg width="787pt" height="284pt"
 viewBox="0.00 0.00 787.00 284.00" xmlns="http://www.w3.org/2000/svg" xmlns:xlink="http://www.w3.org/1999/xlink">
<g id="graph0" class="graph" transform="scale(1 1) rotate(0) translate(4 280)">
<title>dependencies</title>
<polygon fill="white" stroke="transparent" points="-4,4 -4,-280 783,-280 783,4 -4,4"/>
<text text-anchor="start" x="368.51" y="-42.4" font-family="Times-12" font-weight="bold" font-size="14.00">Legend</text>
<polygon fill="#ffffb3" stroke="transparent" points="155.5,-10 155.5,-30 175.5,-30 175.5,-10 155.5,-10"/>
<text text-anchor="start" x="179.13" y="-15.4" font-family="Times-12" font-size="14.00"> &#160;Declarations</text>
<polygon fill="#8dd3c7" stroke="transparent" points="268.5,-10 268.5,-30 288.5,-30 288.5,-10 268.5,-10"/>
<text text-anchor="start" x="292.23" y="-15.4" font-family="Times-12" font-size="14.00"> &#160;Module</text>
<polygon fill="#80b1d3" stroke="transparent" points="354.5,-10 354.5,-30 374.5,-30 374.5,-10 354.5,-10"/>
<text text-anchor="start" x="378.28" y="-15.4" font-family="Times-12" font-size="14.00"> &#160;Bootstrap</text>
<polygon fill="#fdb462" stroke="transparent" points="451.5,-10 451.5,-30 471.5,-30 471.5,-10 451.5,-10"/>
<text text-anchor="start" x="475.17" y="-15.4" font-family="Times-12" font-size="14.00"> &#160;Providers</text>
<polygon fill="#fb8072" stroke="transparent" points="547.5,-10 547.5,-30 567.5,-30 567.5,-10 547.5,-10"/>
<text text-anchor="start" x="571.23" y="-15.4" font-family="Times-12" font-size="14.00"> &#160;Exports</text>
<g id="clust1" class="cluster">
<title>cluster_TemplateModule</title>
<polygon fill="none" stroke="black" stroke-dasharray="1,5" points="8,-70 8,-268 771,-268 771,-70 8,-70"/>
</g>
<g id="clust6" class="cluster">
<title>cluster_TemplateModule_providers</title>
<polygon fill="none" stroke="black" points="16,-78 16,-130 763,-130 763,-78 16,-78"/>
</g>
<g id="clust4" class="cluster">
<title>cluster_TemplateModule_exports</title>
<polygon fill="none" stroke="black" points="304,-208 304,-260 434,-260 434,-208 304,-208"/>
</g>
<!-- TemplateService  -->
<g id="node1" class="node">
<title>TemplateService </title>
<polygon fill="#fb8072" stroke="black" points="426.35,-252 311.65,-252 311.65,-216 426.35,-216 426.35,-252"/>
<text text-anchor="middle" x="369" y="-229.8" font-family="Times,serif" font-size="14.00">TemplateService </text>
</g>
<!-- TemplateModule -->
<g id="node2" class="node">
<title>TemplateModule</title>
<polygon fill="#8dd3c7" stroke="black" points="425.42,-187 422.42,-191 401.42,-191 398.42,-187 312.58,-187 312.58,-151 425.42,-151 425.42,-187"/>
<text text-anchor="middle" x="369" y="-164.8" font-family="Times,serif" font-size="14.00">TemplateModule</text>
</g>
<!-- TemplateModule&#45;&gt;TemplateService  -->
<g id="edge1" class="edge">
<title>TemplateModule&#45;&gt;TemplateService </title>
<path fill="none" stroke="black" stroke-dasharray="5,2" d="M369,-187.11C369,-187.11 369,-205.99 369,-205.99"/>
<polygon fill="black" stroke="black" points="365.5,-205.99 369,-215.99 372.5,-205.99 365.5,-205.99"/>
</g>
<!-- ProductCategoryService -->
<g id="node3" class="node">
<title>ProductCategoryService</title>
<ellipse fill="#fdb462" stroke="black" cx="650" cy="-104" rx="105.36" ry="18"/>
<text text-anchor="middle" x="650" y="-99.8" font-family="Times,serif" font-size="14.00">ProductCategoryService</text>
</g>
<!-- ProductCategoryService&#45;&gt;TemplateModule -->
<g id="edge2" class="edge">
<title>ProductCategoryService&#45;&gt;TemplateModule</title>
<path fill="none" stroke="black" d="M650,-122.11C650,-141.34 650,-169 650,-169 650,-169 435.53,-169 435.53,-169"/>
<polygon fill="black" stroke="black" points="435.53,-165.5 425.53,-169 435.53,-172.5 435.53,-165.5"/>
</g>
<!-- ProductService -->
<g id="node4" class="node">
<title>ProductService</title>
<ellipse fill="#fdb462" stroke="black" cx="457" cy="-104" rx="70.06" ry="18"/>
<text text-anchor="middle" x="457" y="-99.8" font-family="Times,serif" font-size="14.00">ProductService</text>
</g>
<!-- ProductService&#45;&gt;TemplateModule -->
<g id="edge3" class="edge">
<title>ProductService&#45;&gt;TemplateModule</title>
<path fill="none" stroke="black" d="M406.09,-116.53C406.09,-116.53 406.09,-140.85 406.09,-140.85"/>
<polygon fill="black" stroke="black" points="402.59,-140.85 406.09,-150.85 409.59,-140.85 402.59,-140.85"/>
</g>
<!-- ProductUnitService -->
<g id="node5" class="node">
<title>ProductUnitService</title>
<ellipse fill="#fdb462" stroke="black" cx="282" cy="-104" rx="87.4" ry="18"/>
<text text-anchor="middle" x="282" y="-99.8" font-family="Times,serif" font-size="14.00">ProductUnitService</text>
</g>
<!-- ProductUnitService&#45;&gt;TemplateModule -->
<g id="edge4" class="edge">
<title>ProductUnitService&#45;&gt;TemplateModule</title>
<path fill="none" stroke="black" d="M340.99,-117.47C340.99,-117.47 340.99,-140.86 340.99,-140.86"/>
<polygon fill="black" stroke="black" points="337.49,-140.86 340.99,-150.86 344.49,-140.86 337.49,-140.86"/>
</g>
<!-- TemplateService -->
<g id="node6" class="node">
<title>TemplateService</title>
<ellipse fill="#fdb462" stroke="black" cx="100" cy="-104" rx="76.42" ry="18"/>
<text text-anchor="middle" x="100" y="-99.8" font-family="Times,serif" font-size="14.00">TemplateService</text>
</g>
<!-- TemplateService&#45;&gt;TemplateModule -->
<g id="edge5" class="edge">
<title>TemplateService&#45;&gt;TemplateModule</title>
<path fill="none" stroke="black" d="M100,-122.11C100,-141.34 100,-169 100,-169 100,-169 302.61,-169 302.61,-169"/>
<polygon fill="black" stroke="black" points="302.61,-172.5 312.61,-169 302.61,-165.5 302.61,-172.5"/>
</g>
</g>
</svg>
