<?xml version="1.0" encoding="UTF-8" standalone="no"?>
<!DOCTYPE svg PUBLIC "-//W3C//DTD SVG 1.1//EN"
 "http://www.w3.org/Graphics/SVG/1.1/DTD/svg11.dtd">
<!-- Generated by graphviz version 2.47.0 (20210316.0004)
 -->
<!-- Title: dependencies Pages: 1 -->
<svg width="504pt" height="284pt"
 viewBox="0.00 0.00 504.00 284.00" xmlns="http://www.w3.org/2000/svg" xmlns:xlink="http://www.w3.org/1999/xlink">
<g id="graph0" class="graph" transform="scale(1 1) rotate(0) translate(4 280)">
<title>dependencies</title>
<polygon fill="white" stroke="transparent" points="-4,4 -4,-280 500,-280 500,4 -4,4"/>
<text text-anchor="start" x="227.01" y="-42.4" font-family="Times-12" font-weight="bold" font-size="14.00">Legend</text>
<polygon fill="#ffffb3" stroke="transparent" points="14,-10 14,-30 34,-30 34,-10 14,-10"/>
<text text-anchor="start" x="37.63" y="-15.4" font-family="Times-12" font-size="14.00"> &#160;Declarations</text>
<polygon fill="#8dd3c7" stroke="transparent" points="127,-10 127,-30 147,-30 147,-10 127,-10"/>
<text text-anchor="start" x="150.73" y="-15.4" font-family="Times-12" font-size="14.00"> &#160;Module</text>
<polygon fill="#80b1d3" stroke="transparent" points="213,-10 213,-30 233,-30 233,-10 213,-10"/>
<text text-anchor="start" x="236.78" y="-15.4" font-family="Times-12" font-size="14.00"> &#160;Bootstrap</text>
<polygon fill="#fdb462" stroke="transparent" points="310,-10 310,-30 330,-30 330,-10 310,-10"/>
<text text-anchor="start" x="333.67" y="-15.4" font-family="Times-12" font-size="14.00"> &#160;Providers</text>
<polygon fill="#fb8072" stroke="transparent" points="406,-10 406,-30 426,-30 426,-10 406,-10"/>
<text text-anchor="start" x="429.73" y="-15.4" font-family="Times-12" font-size="14.00"> &#160;Exports</text>
<g id="clust1" class="cluster">
<title>cluster_RoleModule</title>
<polygon fill="none" stroke="black" stroke-dasharray="1,5" points="102,-70 102,-268 394,-268 394,-70 102,-70"/>
</g>
<g id="clust4" class="cluster">
<title>cluster_RoleModule_exports</title>
<polygon fill="none" stroke="black" points="193,-208 193,-260 297,-260 297,-208 193,-208"/>
</g>
<g id="clust6" class="cluster">
<title>cluster_RoleModule_providers</title>
<polygon fill="none" stroke="black" points="110,-78 110,-130 386,-130 386,-78 110,-78"/>
</g>
<!-- RoleService  -->
<g id="node1" class="node">
<title>RoleService </title>
<polygon fill="#fb8072" stroke="black" points="288.92,-252 201.08,-252 201.08,-216 288.92,-216 288.92,-252"/>
<text text-anchor="middle" x="245" y="-229.8" font-family="Times,serif" font-size="14.00">RoleService </text>
</g>
<!-- RoleModule -->
<g id="node2" class="node">
<title>RoleModule</title>
<polygon fill="#8dd3c7" stroke="black" points="287.99,-187 284.99,-191 263.99,-191 260.99,-187 202.01,-187 202.01,-151 287.99,-151 287.99,-187"/>
<text text-anchor="middle" x="245" y="-164.8" font-family="Times,serif" font-size="14.00">RoleModule</text>
</g>
<!-- RoleModule&#45;&gt;RoleService  -->
<g id="edge1" class="edge">
<title>RoleModule&#45;&gt;RoleService </title>
<path fill="none" stroke="black" stroke-dasharray="5,2" d="M245,-187.11C245,-187.11 245,-205.99 245,-205.99"/>
<polygon fill="black" stroke="black" points="241.5,-205.99 245,-215.99 248.5,-205.99 241.5,-205.99"/>
</g>
<!-- MenuService -->
<g id="node3" class="node">
<title>MenuService</title>
<ellipse fill="#fdb462" stroke="black" cx="315" cy="-104" rx="62.54" ry="18"/>
<text text-anchor="middle" x="315" y="-99.8" font-family="Times,serif" font-size="14.00">MenuService</text>
</g>
<!-- MenuService&#45;&gt;RoleModule -->
<g id="edge2" class="edge">
<title>MenuService&#45;&gt;RoleModule</title>
<path fill="none" stroke="black" d="M270.24,-116.84C270.24,-116.84 270.24,-140.52 270.24,-140.52"/>
<polygon fill="black" stroke="black" points="266.74,-140.52 270.24,-150.52 273.74,-140.52 266.74,-140.52"/>
</g>
<!-- RoleService -->
<g id="node4" class="node">
<title>RoleService</title>
<ellipse fill="#fdb462" stroke="black" cx="176" cy="-104" rx="58.46" ry="18"/>
<text text-anchor="middle" x="176" y="-99.8" font-family="Times,serif" font-size="14.00">RoleService</text>
</g>
<!-- RoleService&#45;&gt;RoleModule -->
<g id="edge3" class="edge">
<title>RoleService&#45;&gt;RoleModule</title>
<path fill="none" stroke="black" d="M218.12,-116.53C218.12,-116.53 218.12,-140.85 218.12,-140.85"/>
<polygon fill="black" stroke="black" points="214.62,-140.85 218.12,-150.85 221.62,-140.85 214.62,-140.85"/>
</g>
</g>
</svg>
