<?xml version="1.0" encoding="UTF-8" standalone="no"?>
<!DOCTYPE svg PUBLIC "-//W3C//DTD SVG 1.1//EN"
 "http://www.w3.org/Graphics/SVG/1.1/DTD/svg11.dtd">
<!-- Generated by graphviz version 2.47.0 (20210316.0004)
 -->
<!-- Title: dependencies Pages: 1 -->
<svg width="2154pt" height="290pt"
 viewBox="0.00 0.00 2154.00 290.00" xmlns="http://www.w3.org/2000/svg" xmlns:xlink="http://www.w3.org/1999/xlink">
<g id="graph0" class="graph" transform="scale(1 1) rotate(0) translate(4 286)">
<title>dependencies</title>
<polygon fill="white" stroke="transparent" points="-4,4 -4,-286 2150,-286 2150,4 -4,4"/>
<text text-anchor="start" x="1052.01" y="-42.4" font-family="Times-12" font-weight="bold" font-size="14.00">Legend</text>
<polygon fill="#ffffb3" stroke="transparent" points="839,-10 839,-30 859,-30 859,-10 839,-10"/>
<text text-anchor="start" x="862.63" y="-15.4" font-family="Times-12" font-size="14.00"> &#160;Declarations</text>
<polygon fill="#8dd3c7" stroke="transparent" points="952,-10 952,-30 972,-30 972,-10 952,-10"/>
<text text-anchor="start" x="975.73" y="-15.4" font-family="Times-12" font-size="14.00"> &#160;Module</text>
<polygon fill="#80b1d3" stroke="transparent" points="1038,-10 1038,-30 1058,-30 1058,-10 1038,-10"/>
<text text-anchor="start" x="1061.78" y="-15.4" font-family="Times-12" font-size="14.00"> &#160;Bootstrap</text>
<polygon fill="#fdb462" stroke="transparent" points="1135,-10 1135,-30 1155,-30 1155,-10 1135,-10"/>
<text text-anchor="start" x="1158.67" y="-15.4" font-family="Times-12" font-size="14.00"> &#160;Providers</text>
<polygon fill="#fb8072" stroke="transparent" points="1231,-10 1231,-30 1251,-30 1251,-10 1231,-10"/>
<text text-anchor="start" x="1254.73" y="-15.4" font-family="Times-12" font-size="14.00"> &#160;Exports</text>
<g id="clust1" class="cluster">
<title>cluster_AppModule</title>
<polygon fill="none" stroke="black" stroke-dasharray="1,5" points="446,-70 446,-274 958,-274 958,-70 446,-70"/>
</g>
<g id="clust3" class="cluster">
<title>cluster_AppModule_imports</title>
<polygon fill="none" stroke="black" points="454,-78 454,-206 950,-206 950,-78 454,-78"/>
</g>
<g id="clust7" class="cluster">
<title>cluster_AuthModule</title>
<polygon fill="none" stroke="black" stroke-dasharray="1,5" points="8,-70 8,-138 438,-138 438,-70 8,-70"/>
</g>
<g id="clust12" class="cluster">
<title>cluster_AuthModule_providers</title>
<polygon fill="none" stroke="black" points="16,-78 16,-130 430,-130 430,-78 16,-78"/>
</g>
<g id="clust13" class="cluster">
<title>cluster_Log4jsGlobalModule</title>
<polygon fill="none" stroke="black" stroke-dasharray="1,5" points="966,-146 966,-214 1256,-214 1256,-146 966,-146"/>
</g>
<g id="clust16" class="cluster">
<title>cluster_Log4jsGlobalModule_exports</title>
<polygon fill="none" stroke="black" points="1132,-154 1132,-206 1248,-206 1248,-154 1132,-154"/>
</g>
<g id="clust18" class="cluster">
<title>cluster_Log4jsGlobalModule_providers</title>
<polygon fill="none" stroke="black" points="974,-154 974,-206 1124,-206 1124,-154 974,-154"/>
</g>
<g id="clust19" class="cluster">
<title>cluster_Log4jsModule</title>
<polygon fill="none" stroke="black" stroke-dasharray="1,5" points="1062,-222 1062,-274 1176,-274 1176,-222 1062,-222"/>
</g>
<g id="clust25" class="cluster">
<title>cluster_MenuModule</title>
<polygon fill="none" stroke="black" stroke-dasharray="1,5" points="1264,-146 1264,-214 1540,-214 1540,-146 1264,-146"/>
</g>
<g id="clust28" class="cluster">
<title>cluster_MenuModule_exports</title>
<polygon fill="none" stroke="black" points="1422,-154 1422,-206 1532,-206 1532,-154 1422,-154"/>
</g>
<g id="clust30" class="cluster">
<title>cluster_MenuModule_providers</title>
<polygon fill="none" stroke="black" points="1272,-154 1272,-206 1414,-206 1414,-154 1272,-154"/>
</g>
<g id="clust31" class="cluster">
<title>cluster_TemplateModule</title>
<polygon fill="none" stroke="black" stroke-dasharray="1,5" points="1548,-146 1548,-214 1870,-214 1870,-146 1548,-146"/>
</g>
<g id="clust34" class="cluster">
<title>cluster_TemplateModule_exports</title>
<polygon fill="none" stroke="black" points="1732,-154 1732,-206 1862,-206 1862,-154 1732,-154"/>
</g>
<g id="clust36" class="cluster">
<title>cluster_TemplateModule_providers</title>
<polygon fill="none" stroke="black" points="1556,-154 1556,-206 1724,-206 1724,-154 1556,-154"/>
</g>
<g id="clust37" class="cluster">
<title>cluster_UserModule</title>
<polygon fill="none" stroke="black" stroke-dasharray="1,5" points="1878,-146 1878,-214 2138,-214 2138,-146 1878,-146"/>
</g>
<g id="clust40" class="cluster">
<title>cluster_UserModule_exports</title>
<polygon fill="none" stroke="black" points="2026,-154 2026,-206 2130,-206 2130,-154 2026,-154"/>
</g>
<g id="clust42" class="cluster">
<title>cluster_UserModule_providers</title>
<polygon fill="none" stroke="black" points="1886,-154 1886,-206 2018,-206 2018,-154 1886,-154"/>
</g>
<!-- AuthModule -->
<g id="node1" class="node">
<title>AuthModule</title>
<polygon fill="#8dd3c7" stroke="black" points="549.55,-198 546.55,-202 525.55,-202 522.55,-198 462.45,-198 462.45,-162 549.55,-162 549.55,-198"/>
<text text-anchor="middle" x="506" y="-175.8" font-family="Times,serif" font-size="14.00">AuthModule</text>
</g>
<!-- AppModule -->
<g id="node6" class="node">
<title>AppModule</title>
<polygon fill="#8dd3c7" stroke="black" points="703.66,-266 700.66,-270 679.66,-270 676.66,-266 620.34,-266 620.34,-230 703.66,-230 703.66,-266"/>
<text text-anchor="middle" x="662" y="-243.8" font-family="Times,serif" font-size="14.00">AppModule</text>
</g>
<!-- AuthModule&#45;&gt;AppModule -->
<g id="edge1" class="edge">
<title>AuthModule&#45;&gt;AppModule</title>
<path fill="none" stroke="black" d="M549.62,-189C598.31,-189 670.37,-189 670.37,-189 670.37,-189 670.37,-219.98 670.37,-219.98"/>
<polygon fill="black" stroke="black" points="666.87,-219.98 670.37,-229.98 673.87,-219.98 666.87,-219.98"/>
</g>
<!-- Log4jsGlobalModule -->
<g id="node2" class="node">
<title>Log4jsGlobalModule</title>
<polygon fill="#8dd3c7" stroke="black" points="598.04,-122 595.04,-126 574.04,-126 571.04,-122 461.96,-122 461.96,-86 598.04,-86 598.04,-122"/>
<text text-anchor="middle" x="530" y="-99.8" font-family="Times,serif" font-size="14.00">Log4jsGlobalModule</text>
</g>
<!-- Log4jsGlobalModule&#45;&gt;AppModule -->
<g id="edge2" class="edge">
<title>Log4jsGlobalModule&#45;&gt;AppModule</title>
<path fill="none" stroke="black" d="M574.02,-122.24C574.02,-160.99 574.02,-248 574.02,-248 574.02,-248 610.33,-248 610.33,-248"/>
<polygon fill="black" stroke="black" points="610.33,-251.5 620.33,-248 610.33,-244.5 610.33,-251.5"/>
</g>
<!-- Log4jsService  -->
<g id="node10" class="node">
<title>Log4jsService </title>
<polygon fill="#fb8072" stroke="black" points="1240.37,-198 1139.63,-198 1139.63,-162 1240.37,-162 1240.37,-198"/>
<text text-anchor="middle" x="1190" y="-175.8" font-family="Times,serif" font-size="14.00">Log4jsService </text>
</g>
<!-- Log4jsGlobalModule&#45;&gt;Log4jsService  -->
<g id="edge10" class="edge">
<title>Log4jsGlobalModule&#45;&gt;Log4jsService </title>
<path fill="none" stroke="black" stroke-dasharray="5,2" d="M561.9,-122.19C561.9,-137.18 561.9,-156 561.9,-156 561.9,-156 1190,-156 1190,-156 1190,-156 1190,-156.58 1190,-156.58"/>
<polygon fill="black" stroke="black" points="1186.5,-151.81 1190,-161.81 1193.5,-151.81 1186.5,-151.81"/>
</g>
<!-- MenuModule -->
<g id="node3" class="node">
<title>MenuModule</title>
<polygon fill="#8dd3c7" stroke="black" points="708.21,-122 705.21,-126 684.21,-126 681.21,-122 615.79,-122 615.79,-86 708.21,-86 708.21,-122"/>
<text text-anchor="middle" x="662" y="-99.8" font-family="Times,serif" font-size="14.00">MenuModule</text>
</g>
<!-- MenuModule&#45;&gt;AppModule -->
<g id="edge3" class="edge">
<title>MenuModule&#45;&gt;AppModule</title>
<path fill="none" stroke="black" d="M687.1,-122.24C687.1,-122.24 687.1,-219.91 687.1,-219.91"/>
<polygon fill="black" stroke="black" points="683.6,-219.91 687.1,-229.91 690.6,-219.91 683.6,-219.91"/>
</g>
<!-- MenuService  -->
<g id="node13" class="node">
<title>MenuService </title>
<polygon fill="#fb8072" stroke="black" points="1524.14,-198 1429.86,-198 1429.86,-162 1524.14,-162 1524.14,-198"/>
<text text-anchor="middle" x="1477" y="-175.8" font-family="Times,serif" font-size="14.00">MenuService </text>
</g>
<!-- MenuModule&#45;&gt;MenuService  -->
<g id="edge14" class="edge">
<title>MenuModule&#45;&gt;MenuService </title>
<path fill="none" stroke="black" stroke-dasharray="5,2" d="M636.9,-122.11C636.9,-131.9 636.9,-142 636.9,-142 636.9,-142 1477,-142 1477,-142 1477,-142 1477,-151.89 1477,-151.89"/>
<polygon fill="black" stroke="black" points="1473.5,-151.89 1477,-161.89 1480.5,-151.89 1473.5,-151.89"/>
</g>
<!-- TemplateModule -->
<g id="node4" class="node">
<title>TemplateModule</title>
<polygon fill="#8dd3c7" stroke="black" points="838.42,-122 835.42,-126 814.42,-126 811.42,-122 725.58,-122 725.58,-86 838.42,-86 838.42,-122"/>
<text text-anchor="middle" x="782" y="-99.8" font-family="Times,serif" font-size="14.00">TemplateModule</text>
</g>
<!-- TemplateModule&#45;&gt;AppModule -->
<g id="edge4" class="edge">
<title>TemplateModule&#45;&gt;AppModule</title>
<path fill="none" stroke="black" d="M810.1,-122.04C810.1,-159.45 810.1,-242 810.1,-242 810.1,-242 714.04,-242 714.04,-242"/>
<polygon fill="black" stroke="black" points="714.04,-238.5 704.04,-242 714.04,-245.5 714.04,-238.5"/>
</g>
<!-- TemplateService  -->
<g id="node15" class="node">
<title>TemplateService </title>
<polygon fill="#fb8072" stroke="black" points="1854.35,-198 1739.65,-198 1739.65,-162 1854.35,-162 1854.35,-198"/>
<text text-anchor="middle" x="1797" y="-175.8" font-family="Times,serif" font-size="14.00">TemplateService </text>
</g>
<!-- TemplateModule&#45;&gt;TemplateService  -->
<g id="edge16" class="edge">
<title>TemplateModule&#45;&gt;TemplateService </title>
<path fill="none" stroke="black" stroke-dasharray="5,2" d="M753.9,-122.17C753.9,-126.05 753.9,-129 753.9,-129 753.9,-129 1797,-129 1797,-129 1797,-129 1797,-151.88 1797,-151.88"/>
<polygon fill="black" stroke="black" points="1793.5,-151.88 1797,-161.88 1800.5,-151.88 1793.5,-151.88"/>
</g>
<!-- UserModule -->
<g id="node5" class="node">
<title>UserModule</title>
<polygon fill="#8dd3c7" stroke="black" points="941.98,-122 938.98,-126 917.98,-126 914.98,-122 856.02,-122 856.02,-86 941.98,-86 941.98,-122"/>
<text text-anchor="middle" x="899" y="-99.8" font-family="Times,serif" font-size="14.00">UserModule</text>
</g>
<!-- UserModule&#45;&gt;AuthModule -->
<g id="edge6" class="edge">
<title>UserModule&#45;&gt;AuthModule</title>
<path fill="none" stroke="black" d="M884.67,-122.31C884.67,-142.15 884.67,-171 884.67,-171 884.67,-171 559.81,-171 559.81,-171"/>
<polygon fill="black" stroke="black" points="559.81,-167.5 549.81,-171 559.81,-174.5 559.81,-167.5"/>
</g>
<!-- UserModule&#45;&gt;AppModule -->
<g id="edge5" class="edge">
<title>UserModule&#45;&gt;AppModule</title>
<path fill="none" stroke="black" d="M913.33,-122.09C913.33,-161.99 913.33,-254 913.33,-254 913.33,-254 713.78,-254 713.78,-254"/>
<polygon fill="black" stroke="black" points="713.78,-250.5 703.78,-254 713.78,-257.5 713.78,-250.5"/>
</g>
<!-- UserService  -->
<g id="node17" class="node">
<title>UserService </title>
<polygon fill="#fb8072" stroke="black" points="2121.9,-198 2034.1,-198 2034.1,-162 2121.9,-162 2121.9,-198"/>
<text text-anchor="middle" x="2078" y="-175.8" font-family="Times,serif" font-size="14.00">UserService </text>
</g>
<!-- UserModule&#45;&gt;UserService  -->
<g id="edge18" class="edge">
<title>UserModule&#45;&gt;UserService </title>
<path fill="none" stroke="black" stroke-dasharray="5,2" d="M942.01,-98C1154.05,-98 2078,-98 2078,-98 2078,-98 2078,-151.8 2078,-151.8"/>
<polygon fill="black" stroke="black" points="2074.5,-151.8 2078,-161.8 2081.5,-151.8 2074.5,-151.8"/>
</g>
<!-- AuthService -->
<g id="node7" class="node">
<title>AuthService</title>
<ellipse fill="#fdb462" stroke="black" cx="363" cy="-104" rx="59.11" ry="18"/>
<text text-anchor="middle" x="363" y="-99.8" font-family="Times,serif" font-size="14.00">AuthService</text>
</g>
<!-- AuthService&#45;&gt;AuthModule -->
<g id="edge7" class="edge">
<title>AuthService&#45;&gt;AuthModule</title>
<path fill="none" stroke="black" d="M363,-122.31C363,-142.15 363,-171 363,-171 363,-171 452.32,-171 452.32,-171"/>
<polygon fill="black" stroke="black" points="452.32,-174.5 462.32,-171 452.32,-167.5 452.32,-174.5"/>
</g>
<!-- JwtStrategy -->
<g id="node8" class="node">
<title>JwtStrategy</title>
<ellipse fill="#fdb462" stroke="black" cx="229" cy="-104" rx="56.76" ry="18"/>
<text text-anchor="middle" x="229" y="-99.8" font-family="Times,serif" font-size="14.00">JwtStrategy</text>
</g>
<!-- JwtStrategy&#45;&gt;AuthModule -->
<g id="edge8" class="edge">
<title>JwtStrategy&#45;&gt;AuthModule</title>
<path fill="none" stroke="black" d="M229,-122.01C229,-144.49 229,-180 229,-180 229,-180 452.41,-180 452.41,-180"/>
<polygon fill="black" stroke="black" points="452.41,-183.5 462.41,-180 452.41,-176.5 452.41,-183.5"/>
</g>
<!-- LocalStrategy -->
<g id="node9" class="node">
<title>LocalStrategy</title>
<ellipse fill="#fdb462" stroke="black" cx="89" cy="-104" rx="65.41" ry="18"/>
<text text-anchor="middle" x="89" y="-99.8" font-family="Times,serif" font-size="14.00">LocalStrategy</text>
</g>
<!-- LocalStrategy&#45;&gt;AuthModule -->
<g id="edge9" class="edge">
<title>LocalStrategy&#45;&gt;AuthModule</title>
<path fill="none" stroke="black" d="M89,-122.03C89,-146.98 89,-189 89,-189 89,-189 452.16,-189 452.16,-189"/>
<polygon fill="black" stroke="black" points="452.16,-192.5 462.16,-189 452.16,-185.5 452.16,-192.5"/>
</g>
<!-- Log4jsService -->
<g id="node11" class="node">
<title>Log4jsService</title>
<ellipse fill="#fdb462" stroke="black" cx="1049" cy="-180" rx="66.63" ry="18"/>
<text text-anchor="middle" x="1049" y="-175.8" font-family="Times,serif" font-size="14.00">Log4jsService</text>
</g>
<!-- Log4jsService&#45;&gt;Log4jsGlobalModule -->
<g id="edge11" class="edge">
<title>Log4jsService&#45;&gt;Log4jsGlobalModule</title>
<path fill="none" stroke="black" d="M981.7,-180C853.33,-180 586.15,-180 586.15,-180 586.15,-180 586.15,-132.01 586.15,-132.01"/>
<polygon fill="black" stroke="black" points="589.65,-132.01 586.15,-122.01 582.65,-132.01 589.65,-132.01"/>
</g>
<!-- Log4jsModule -->
<g id="node12" class="node">
<title>Log4jsModule</title>
<polygon fill="#8dd3c7" stroke="black" points="1168.44,-266 1165.44,-270 1144.44,-270 1141.44,-266 1069.56,-266 1069.56,-230 1168.44,-230 1168.44,-266"/>
<text text-anchor="middle" x="1119" y="-243.8" font-family="Times,serif" font-size="14.00">Log4jsModule</text>
</g>
<!-- Log4jsService&#45;&gt;Log4jsModule -->
<g id="edge13" class="edge">
<title>Log4jsService&#45;&gt;Log4jsModule</title>
<path fill="none" stroke="black" d="M1092.8,-193.76C1092.8,-193.76 1092.8,-219.87 1092.8,-219.87"/>
<polygon fill="black" stroke="black" points="1089.3,-219.87 1092.8,-229.87 1096.3,-219.87 1089.3,-219.87"/>
</g>
<!-- Log4jsModule&#45;&gt;Log4jsService  -->
<g id="edge12" class="edge">
<title>Log4jsModule&#45;&gt;Log4jsService </title>
<path fill="none" stroke="black" stroke-dasharray="5,2" d="M1154.02,-229.78C1154.02,-229.78 1154.02,-208.27 1154.02,-208.27"/>
<polygon fill="black" stroke="black" points="1157.52,-208.27 1154.02,-198.27 1150.52,-208.27 1157.52,-208.27"/>
</g>
<!-- MenuService -->
<g id="node14" class="node">
<title>MenuService</title>
<ellipse fill="#fdb462" stroke="black" cx="1343" cy="-180" rx="62.54" ry="18"/>
<text text-anchor="middle" x="1343" y="-175.8" font-family="Times,serif" font-size="14.00">MenuService</text>
</g>
<!-- MenuService&#45;&gt;MenuModule -->
<g id="edge15" class="edge">
<title>MenuService&#45;&gt;MenuModule</title>
<path fill="none" stroke="black" d="M1343,-161.97C1343,-155.15 1343,-149 1343,-149 1343,-149 653.63,-149 653.63,-149 653.63,-149 653.63,-132.04 653.63,-132.04"/>
<polygon fill="black" stroke="black" points="657.13,-132.04 653.63,-122.04 650.13,-132.04 657.13,-132.04"/>
</g>
<!-- TemplateService -->
<g id="node16" class="node">
<title>TemplateService</title>
<ellipse fill="#fdb462" stroke="black" cx="1640" cy="-180" rx="76.42" ry="18"/>
<text text-anchor="middle" x="1640" y="-175.8" font-family="Times,serif" font-size="14.00">TemplateService</text>
</g>
<!-- TemplateService&#45;&gt;TemplateModule -->
<g id="edge17" class="edge">
<title>TemplateService&#45;&gt;TemplateModule</title>
<path fill="none" stroke="black" d="M1640,-161.85C1640,-149.73 1640,-136 1640,-136 1640,-136 782,-136 782,-136 782,-136 782,-132.24 782,-132.24"/>
<polygon fill="black" stroke="black" points="785.5,-132.24 782,-122.24 778.5,-132.24 785.5,-132.24"/>
</g>
<!-- UserService -->
<g id="node18" class="node">
<title>UserService</title>
<ellipse fill="#fdb462" stroke="black" cx="1952" cy="-180" rx="58.44" ry="18"/>
<text text-anchor="middle" x="1952" y="-175.8" font-family="Times,serif" font-size="14.00">UserService</text>
</g>
<!-- UserService&#45;&gt;UserModule -->
<g id="edge19" class="edge">
<title>UserService&#45;&gt;UserModule</title>
<path fill="none" stroke="black" d="M1952,-161.97C1952,-141.23 1952,-110 1952,-110 1952,-110 952.24,-110 952.24,-110"/>
<polygon fill="black" stroke="black" points="952.24,-106.5 942.24,-110 952.24,-113.5 952.24,-106.5"/>
</g>
</g>
</svg>
